<?xml version="1.0" encoding="UTF-8"?>
<svg version="1.1" xmlns="http://www.w3.org/2000/svg" width="200" height="200">
<path d="M0 0 C66 0 132 0 200 0 C200 66 200 132 200 200 C134 200 68 200 0 200 C0 134 0 68 0 0 Z " fill="#FDFEFD" transform="translate(0,0)"/>
<path d="M0 0 C2.78597396 1.6176623 4.71677307 3.79852416 6.9375 6.125 C8.93415598 7.79567133 10.93401034 9.46252986 12.9375 11.125 C15.3125 13.3125 15.3125 13.3125 16.9375 15.125 C16.9375 15.785 16.9375 16.445 16.9375 17.125 C17.74815918 17.44561401 17.74815918 17.44561401 18.57519531 17.77270508 C21.78907021 19.61247906 24.17102637 22.13239832 26.734375 24.76171875 C27.28683899 25.31938431 27.83930298 25.87704987 28.4085083 26.45161438 C30.17300514 28.23387805 31.93068795 30.02266335 33.6875 31.8125 C35.99135618 34.15315389 38.29876596 36.49023122 40.609375 38.82421875 C41.16105347 39.38293671 41.71273193 39.94165466 42.28112793 40.51730347 C45.91257003 44.16984273 49.65333898 47.6150476 53.65332031 50.86645508 C54.07709961 51.2817749 54.50087891 51.69709473 54.9375 52.125 C54.9375 52.785 54.9375 53.445 54.9375 54.125 C55.83540504 54.53443848 55.83540504 54.53443848 56.75144958 54.95214844 C58.87728027 56.09269114 60.23287505 57.18304216 61.91430664 58.890625 C62.74020042 59.72158691 62.74020042 59.72158691 63.58277893 60.56933594 C64.16518845 61.16520508 64.74759796 61.76107422 65.34765625 62.375 C65.9563707 62.98891602 66.56508514 63.60283203 67.19224548 64.23535156 C69.13298244 66.1938709 71.06689423 68.1589504 73 70.125 C74.93752935 72.09017057 76.87650537 74.05385662 78.81846619 76.01464844 C80.02548756 77.23390033 81.22982559 78.45581584 82.4311676 79.68066406 C84.8367061 82.11490024 87.08008002 84.22005335 89.9375 86.125 C87.49287933 91.59227972 83.38000866 95.9297298 78 98.5625 C77.319375 98.748125 76.63875 98.93375 75.9375 99.125 C74.59829162 98.00700014 73.26627444 96.88038103 71.9375 95.75 C70.82375 94.81027344 70.82375 94.81027344 69.6875 93.8515625 C69.11 93.28179687 68.5325 92.71203125 67.9375 92.125 C67.9375 91.465 67.9375 90.805 67.9375 90.125 C67.34202866 89.85517303 66.74655731 89.58534607 66.13304138 89.30734253 C63.94559365 88.12935859 62.54388317 86.96798602 60.80883789 85.20751953 C60.22465591 84.6199588 59.64047394 84.03239807 59.03858948 83.42703247 C58.41870651 82.79368988 57.79882355 82.16034729 57.16015625 81.5078125 C56.51179306 80.85424774 55.86342987 80.20068298 55.19541931 79.52731323 C53.12546808 77.43957273 51.06232016 75.34527686 49 73.25 C46.94041859 71.16271986 44.87937143 69.07694296 42.81529236 66.99411011 C41.53249512 65.69914653 40.25238001 64.40151882 38.97535706 63.1008606 C35.77773148 59.86767873 32.54362404 56.91006757 28.9375 54.125 C24.10233516 49.61950549 24.10233516 49.61950549 22.9375 46.125 C21.4525 45.63 21.4525 45.63 19.9375 45.125 C18.24876121 43.48070171 16.58444485 41.81115782 14.9375 40.125 C14.15375 39.526875 13.37 38.92875 12.5625 38.3125 C9.49142633 35.75327194 7.15640382 32.86393601 4.68359375 29.734375 C2.84306872 27.67317777 2.84306872 27.67317777 -1.0625 28.125 C-3.31881634 30.01719042 -5.31729164 31.89581552 -7.35986328 34 C-7.98146332 34.62422852 -8.60306335 35.24845703 -9.24349976 35.89160156 C-11.29927202 37.96037341 -13.34074137 40.04271043 -15.3828125 42.125 C-16.80618192 43.56090585 -18.23058359 44.99578915 -19.65597534 46.4296875 C-23.40871567 50.2090604 -27.15016871 53.99939757 -30.8885498 57.79296875 C-36.87752412 63.86812222 -42.87994616 69.92991734 -48.88885117 75.98535156 C-50.99092993 78.10795261 -53.08609515 80.23720867 -55.18069458 82.3671875 C-56.4615425 83.6616851 -57.74260763 84.95596784 -59.02392578 86.25 C-59.90138458 87.1476709 -59.90138458 87.1476709 -60.79656982 88.06347656 C-62.18097274 89.45571656 -63.6169995 90.79630442 -65.0625 92.125 C-65.7225 92.125 -66.3825 92.125 -67.0625 92.125 C-67.44535156 93.01445312 -67.44535156 93.01445312 -67.8359375 93.921875 C-69.18066498 96.33724538 -70.55464367 97.63711706 -72.6875 99.375 C-73.63496094 100.15617187 -73.63496094 100.15617187 -74.6015625 100.953125 C-75.08367187 101.33984375 -75.56578125 101.7265625 -76.0625 102.125 C-78.78934869 99.54964291 -81.05301217 97.1393755 -83.125 94 C-84.92669333 91.32651957 -86.38241472 89.84791197 -89.0625 88.125 C-88.49256922 84.37771826 -86.97401825 82.67270247 -84.30859375 80.04296875 C-83.1494043 78.89151367 -83.1494043 78.89151367 -81.96679688 77.71679688 C-81.15275391 76.92337891 -80.33871094 76.12996094 -79.5 75.3125 C-78.31954102 74.13977539 -78.31954102 74.13977539 -77.11523438 72.94335938 C-73.59982129 69.47431613 -70.04936145 66.10224637 -66.30639648 62.87988281 C-61.82080563 58.97513258 -57.64772577 54.80203693 -53.4765625 50.56640625 C-51.87122239 48.94844006 -50.26574992 47.3306052 -48.66015625 45.71289062 C-46.15647168 43.18423349 -43.65442772 40.65399097 -41.15478516 38.12133789 C-38.72468215 35.66121902 -36.28855003 33.20720267 -33.8515625 30.75390625 C-33.09952545 29.98840958 -32.3474884 29.2229129 -31.57266235 28.43421936 C-30.87788788 27.73606613 -30.1831134 27.0379129 -29.46728516 26.31860352 C-28.85631989 25.70018082 -28.24535461 25.08175812 -27.61587524 24.44459534 C-26.0625 23.125 -26.0625 23.125 -24.0625 23.125 C-23.79824219 22.52171875 -23.53398438 21.9184375 -23.26171875 21.296875 C-22.00494926 19.0207713 -20.90809838 17.95681567 -18.875 16.375 C-16.12460602 14.12104643 -13.79917686 11.77552869 -11.5 9.0625 C-3.93152969 0.23827453 -3.93152969 0.23827453 0 0 Z " fill="#F64825" transform="translate(100.0625,21.875)"/>
<path d="M0 0 C0.99 0.33 1.98 0.66 3 1 C3 1.66 3 2.32 3 3 C3.680625 3.165 4.36125 3.33 5.0625 3.5 C8.64043588 5.32703109 10.41726398 7.56958216 12.953125 10.6328125 C16.10269809 14.27525772 19.59168249 17.56069581 23.05859375 20.8984375 C25 23 25 23 25 25 C25.59004822 25.26473114 26.18009644 25.52946228 26.7880249 25.80221558 C29.07589188 27.04109545 30.56481646 28.32326738 32.39160156 30.16455078 C33.35214447 31.12532028 33.35214447 31.12532028 34.33209229 32.10549927 C35.01140808 32.79513763 35.69072388 33.484776 36.390625 34.1953125 C37.09523865 34.90275604 37.79985229 35.61019958 38.52581787 36.33908081 C40.7719539 38.59639862 43.01103009 40.86057633 45.25 43.125 C46.77297717 44.65800953 48.29640939 46.19056715 49.8203125 47.72265625 C53.55216815 51.47654573 57.27825351 55.23608914 61 59 C60.05026267 60.12187826 59.09854345 61.24207892 58.14599609 62.36157227 C57.61622162 62.98556412 57.08644714 63.60955597 56.5406189 64.25245667 C54.70729388 66.33202023 52.74169082 68.14926121 50.625 69.9375 C49.93664062 70.52402344 49.24828125 71.11054688 48.5390625 71.71484375 C47.77722656 72.35099609 47.77722656 72.35099609 47 73 C41.5410742 68.5115499 36.58368128 63.63431007 31.6484375 58.5859375 C29.20403476 56.19921978 26.66686504 54.12844434 24 52 C22.31014833 50.35684544 20.64775595 48.68536521 19 47 C17.59903414 45.59627972 16.19654669 44.19407723 14.79296875 42.79296875 C8.39648438 36.39648438 8.39648438 36.39648438 2 30 C-1.09810362 31.37820981 -3.20420084 32.95944301 -5.58764648 35.3605957 C-6.61407509 36.3872509 -6.61407509 36.3872509 -7.66123962 37.43464661 C-8.39049149 38.17422104 -9.11974335 38.91379547 -9.87109375 39.67578125 C-11.01010887 40.81904121 -11.01010887 40.81904121 -12.1721344 41.98539734 C-14.59865978 44.42310824 -17.01815209 46.86766756 -19.4375 49.3125 C-21.06268947 50.9477245 -22.68833545 52.58249542 -24.31445312 54.21679688 C-27.30679917 57.22546568 -30.29649553 60.23671287 -33.28295898 63.2512207 C-33.92578827 63.89805817 -34.56861755 64.54489563 -35.23092651 65.21133423 C-36.33606974 66.32871679 -37.43549696 67.45181645 -38.52615356 68.58334351 C-40.92754562 71.05870596 -42.4753427 72.60837141 -46 73 C-46 72.34 -46 71.68 -46 71 C-46.85658203 70.62488281 -46.85658203 70.62488281 -47.73046875 70.2421875 C-50.32526745 68.82197066 -52.1895481 67.18197351 -54.3125 65.125 C-55.03050781 64.44695312 -55.74851563 63.76890625 -56.48828125 63.0703125 C-58 61 -58 61 -57.9609375 59.01953125 C-54.84931941 52.48007372 -48.56230553 47.44984442 -43 43 C-41.31687762 41.34734648 -39.65433779 39.68106898 -38 38 C-36.7812897 36.7701451 -35.56226998 35.54059677 -34.34301758 34.3112793 C-33.66914505 33.63095139 -32.99527252 32.95062347 -32.30097961 32.24967957 C-29.27301543 29.19501916 -26.2398042 26.14559207 -23.20629883 23.09643555 C-21.60328753 21.48328792 -20.00206439 19.86836151 -18.40258789 18.25170898 C-16.09204773 15.91704403 -13.77522654 13.58877952 -11.45703125 11.26171875 C-10.7393306 10.53369553 -10.02162994 9.8056723 -9.28218079 9.05558777 C-8.28555672 8.05873711 -8.28555672 8.05873711 -7.26879883 7.04174805 C-6.68431473 6.45282272 -6.09983063 5.8638974 -5.49763489 5.25712585 C-4 4 -4 4 -2 4 C-1.34 2.68 -0.68 1.36 0 0 Z " fill="#F74723" transform="translate(98,80)"/>
<path d="M0 0 C3.59038269 1.34858633 5.64745361 2.31401634 8 5.375 C10.42255976 8.37376962 12.9340844 10.64160338 16 13 C17.68933922 14.6436814 19.35259924 16.3142876 21 18 C22.43615967 19.43883908 23.87373404 20.87626708 25.3125 22.3125 C26.54166667 23.54166667 27.77083333 24.77083333 29 26 C27 28 27 28 24.70944214 28.24050903 C23.75457916 28.23606781 22.79971619 28.23162659 21.81591797 28.22705078 C20.73494843 28.22689972 19.65397888 28.22674866 18.54025269 28.22659302 C17.36939117 28.21627045 16.19852966 28.20594788 14.9921875 28.1953125 C13.79643097 28.1924826 12.60067444 28.18965271 11.36868286 28.18673706 C7.53735481 28.17551305 3.70625778 28.15040431 -0.125 28.125 C-2.71744455 28.11497308 -5.30989275 28.10584673 -7.90234375 28.09765625 C-14.26830842 28.07556646 -20.63413771 28.04206706 -27 28 C-27 27.34 -27 26.68 -27 26 C-25.6015625 24.62280273 -25.6015625 24.62280273 -23.625 22.99609375 C-18.47566603 18.61757057 -13.75318068 13.86313947 -9 9.0625 C-8.12988281 8.18787109 -7.25976562 7.31324219 -6.36328125 6.41210938 C-4.23986451 4.27702551 -2.11883622 2.13962795 0 0 Z " fill="#F84723" transform="translate(98,141)"/>
<path d="M0 0 C3.375 0.25 3.375 0.25 7 1 C8.125 2.75 8.125 2.75 9 5 C10.62449243 6.70779973 12.29220027 8.37550757 14 10 C15 11 16 12 17 13 C15.32097858 16.59790303 13.78164984 19.21835016 11 22 C9.80972016 24.59915538 9.80972016 24.59915538 9 27 C6.83125748 26.49396008 5.00032373 26.00016187 3 25 C-2.22325977 29.46351289 -7.20922972 34.0744893 -12 39 C-12.66 38.67 -13.32 38.34 -14 38 C-14 37.34 -14 36.68 -14 36 C-13.01 36 -12.02 36 -11 36 C-11 35.34 -11 34.68 -11 34 C-11.66 34 -12.32 34 -13 34 C-13 33.34 -13 32.68 -13 32 C-11.35 31.34 -9.7 30.68 -8 30 C-8 29.34 -8 28.68 -8 28 C-9.84725052 27.30840599 -9.84725052 27.30840599 -12 27 C-12.99 27.66 -13.98 28.32 -15 29 C-15 28.34 -15 27.68 -15 27 C-17.31 27.33 -19.62 27.66 -22 28 C-22.75 26.3125 -22.75 26.3125 -23 24 C-20.83664531 20.21412929 -19.40297392 19.14104087 -15.25 17.6875 C-14.1775 17.460625 -13.105 17.23375 -12 17 C-12 15.68 -12 14.36 -12 13 C-11.34 13 -10.68 13 -10 13 C-9.67 12.01 -9.34 11.02 -9 10 C-6.5625 7.3125 -6.5625 7.3125 -4 5 C-3.34 5 -2.68 5 -2 5 C-1.34 3.35 -0.68 1.7 0 0 Z " fill="#F64722" transform="translate(97,84)"/>
<path d="M0 0 C1.32 0.33 2.64 0.66 4 1 C4 1.99 4 2.98 4 4 C3.01 4.495 3.01 4.495 2 5 C1.34786708 7.02463255 1.34786708 7.02463255 1 9 C2.423125 8.2575 2.423125 8.2575 3.875 7.5 C7 6 7 6 9 6 C9.12375 6.928125 9.12375 6.928125 9.25 7.875 C9.79394438 10.17972859 9.79394438 10.17972859 12 11.0625 C12.66 11.371875 13.32 11.68125 14 12 C14.33 12.99 14.66 13.98 15 15 C14.01 15.99 13.02 16.98 12 18 C11.67 17.01 11.34 16.02 11 15 C7.49705129 13.28432339 7.49705129 13.28432339 4 12 C4 12.66 4 13.32 4 14 C4.66 14 5.32 14 6 14 C6.061875 14.61875 6.12375 15.2375 6.1875 15.875 C6.828919 18.27761141 6.828919 18.27761141 9.5625 19.25 C10.366875 19.4975 11.17125 19.745 12 20 C12 20.66 12 21.32 12 22 C12.61875 21.360625 13.2375 20.72125 13.875 20.0625 C16 18 16 18 18 17 C20.64 18.98 23.28 20.96 26 23 C25.34 24.32 24.68 25.64 24 27 C23.34 26.67 22.68 26.34 22 26 C21.67 26.66 21.34 27.32 21 28 C19.35 28 17.7 28 16 28 C15.67 28.99 15.34 29.98 15 31 C13.125 31.875 13.125 31.875 11 32 C9.25 30.75 9.25 30.75 8 29 C8 28.01 8 27.02 8 26 C7.34 26 6.68 26 6 26 C5.67 25.34 5.34 24.68 5 24 C4.40703125 24.21914062 3.8140625 24.43828125 3.203125 24.6640625 C1 25 1 25 -0.703125 23.9609375 C-4.91634981 19.64131812 -4.91634981 19.64131812 -5.375 16.125 C-5.25125 15.42375 -5.1275 14.7225 -5 14 C-5.66 14 -6.32 14 -7 14 C-7 13.34 -7 12.68 -7 12 C-6.34 11.67 -5.68 11.34 -5 11 C-4.59270772 8.67843403 -4.25561323 6.3431213 -4 4 C-2.68 3.67 -1.36 3.34 0 3 C0 2.01 0 1.02 0 0 Z " fill="#F74821" transform="translate(114,100)"/>
<path d="M0 0 C0.99 0.99 1.98 1.98 3 3 C2.01 3.33 1.02 3.66 0 4 C0 4.99 0 5.98 0 7 C1.98 6.67 3.96 6.34 6 6 C6.33 6.99 6.66 7.98 7 9 C9.01508358 9.73323796 9.01508358 9.73323796 11 10 C11 10.66 11 11.32 11 12 C12.1446875 12.4021875 12.1446875 12.4021875 13.3125 12.8125 C15.88988618 13.95134505 17.26954864 14.81416671 19 17 C19 17.66 19 18.32 19 19 C20.65 19.66 22.3 20.32 24 21 C23.67 22.32 23.34 23.64 23 25 C21.68 25 20.36 25 19 25 C17.32774271 25.30404678 15.65919896 25.63128912 14 26 C13.67 26.99 13.34 27.98 13 29 C9.58279506 29.40202411 8.02303514 29.01222273 4.9375 27.375 C0.82443739 24.04954513 -2.17831297 20.34096569 -3 15 C-4.32 14.67 -5.64 14.34 -7 14 C-6.34 13.34 -5.68 12.68 -5 12 C-4.67 11.01 -4.34 10.02 -4 9 C-5.98 9.99 -5.98 9.99 -8 11 C-8 9.68 -8 8.36 -8 7 C-5 5 -5 5 -1 5 C-0.67 3.35 -0.34 1.7 0 0 Z " fill="#F74725" transform="translate(132,55)"/>
<path d="M0 0 C0.66 0 1.32 0 2 0 C3.375 1.3984375 3.375 1.3984375 5 3.375 C8.76222012 7.82921409 12.86058282 11.85683532 17.05859375 15.8984375 C19 18 19 18 19 20 C19.55719727 20.23122559 20.11439453 20.46245117 20.68847656 20.70068359 C23.6161598 22.34634585 25.62385188 24.39975251 27.984375 26.7890625 C28.44483215 27.25234955 28.90528931 27.7156366 29.37969971 28.19296265 C30.84125078 29.66565898 32.29567168 31.14517403 33.75 32.625 C34.74302611 33.62806322 35.73651089 34.63067257 36.73046875 35.6328125 C39.15897941 38.08330835 41.58114675 40.5399667 44 43 C43.34 43.66 42.68 44.32 42 45 C41.01 44.505 41.01 44.505 40 44 C40 43.01 40 42.02 40 41 C39.443125 40.938125 38.88625 40.87625 38.3125 40.8125 C35.06205385 39.67045135 33.38412628 37.44372943 31 35 C28.83379456 33.70480005 28.83379456 33.70480005 27 33 C26.54625 33.66 26.0925 34.32 25.625 35 C25.08875 35.66 24.5525 36.32 24 37 C23.34 37 22.68 37 22 37 C22 36.34 22 35.68 22 35 C21.195625 34.7525 20.39125 34.505 19.5625 34.25 C17 33 17 33 16.1875 30.875 C16.125625 30.25625 16.06375 29.6375 16 29 C15.34 29 14.68 29 14 29 C14 28.34 14 27.68 14 27 C16.92528027 27.62684577 19.41225673 28.48304705 22 30 C22.33 30.66 22.66 31.32 23 32 C23.33 31.01 23.66 30.02 24 29 C23.17503935 26.84146359 23.17503935 26.84146359 21.0625 26.0625 C19 25 19 25 17 22 C16.01 22.66 15.02 23.32 14 24 C13.01 24 12.02 24 11 24 C11.33 22.35 11.66 20.7 12 19 C12.66 19 13.32 19 14 19 C13.67 18.01 13.34 17.02 13 16 C12.01 15.67 11.02 15.34 10 15 C10 15.99 10 16.98 10 18 C9.01 17.67 8.02 17.34 7 17 C7.66 15.35 8.32 13.7 9 12 C8.505 11.54625 8.01 11.0925 7.5 10.625 C6 9 6 9 6 7 C4.02 6.34 2.04 5.68 0 5 C0 3.35 0 1.7 0 0 Z M5 19 C5.33 19 5.66 19 6 19 C6 21.31 6 23.62 6 26 C5.01 26.33 4.02 26.66 3 27 C3 27.66 3 28.32 3 29 C3.66 29 4.32 29 5 29 C5.33 29.99 5.66 30.98 6 32 C3 32 3 32 1.17578125 30.46875 C0.56089844 29.8190625 -0.05398437 29.169375 -0.6875 28.5 C-1.31011719 27.8503125 -1.93273437 27.200625 -2.57421875 26.53125 C-3.04472656 26.0259375 -3.51523438 25.520625 -4 25 C-3.67 24.34 -3.34 23.68 -3 23 C-2.34 23.66 -1.68 24.32 -1 25 C-0.01 25 0.98 25 2 25 C2.309375 24.195625 2.61875 23.39125 2.9375 22.5625 C4 20 4 20 5 19 Z " fill="#EF4C26" transform="translate(104,85)"/>
<path d="M0 0 C2.88276115 1.38562836 4.99219936 2.7193933 7.25 5 C8.03117187 5.7734375 8.03117187 5.7734375 8.828125 6.5625 C10 8 10 8 10 10 C10.53625 10.226875 11.0725 10.45375 11.625 10.6875 C16.81709138 13.55681366 20.43802374 17.33258283 24 22 C24.98230498 23.0173873 25.97469597 24.02596117 27 25 C23.51329166 23.8905928 20.22515763 22.73662334 17 21 C17 20.01 17 19.02 17 18 C16.34 18 15.68 18 15 18 C14.34 16.68 13.68 15.36 13 14 C9.97580475 14.58803797 6.98241547 15.22678118 4 16 C4 15.34 4 14.68 4 14 C1.03 13.67 -1.94 13.34 -5 13 C-5.33 13.99 -5.66 14.98 -6 16 C-7.051875 16.28875 -8.10375 16.5775 -9.1875 16.875 C-14.69208154 18.49930275 -17.78182774 21.17274161 -21 26 C-23.625 26.6875 -23.625 26.6875 -26 27 C-20.89551178 20.81865131 -15.31705058 15.20177122 -9.625 9.5625 C-8.69816406 8.64017578 -7.77132812 7.71785156 -6.81640625 6.76757812 C-4.54654154 4.50941375 -2.27436462 2.25363058 0 0 Z " fill="#F7FAF4" transform="translate(100,48)"/>
<path d="M0 0 C0 3 0 3 -1.9375 5 C-2.618125 5.66 -3.29875 6.32 -4 7 C-4.33 7.99 -4.66 8.98 -5 10 C-5.99 10 -6.98 10 -8 10 C-8 11.65 -8 13.3 -8 15 C-7.34 15 -6.68 15 -6 15 C-6 15.66 -6 16.32 -6 17 C-7.64556566 18.03435556 -9.3170608 19.02763513 -11 20 C-15.62406147 23.28551736 -19.70491953 27.37549225 -23 32 C-23 32.99 -23 33.98 -23 35 C-22.01 35.33 -21.02 35.66 -20 36 C-19.67 36.66 -19.34 37.32 -19 38 C-15.80097361 38.08886184 -13.07322544 37.91058531 -10 37 C-10.33 35.68 -10.66 34.36 -11 33 C-9.39125 32.566875 -9.39125 32.566875 -7.75 32.125 C-4.90599636 31.27179891 -2.56491017 30.4363497 0 29 C-1.61594832 31.04119788 -3.2856382 33.04072937 -5 35 C-5.66 35 -6.32 35 -7 35 C-7.25523438 35.59296875 -7.51046875 36.1859375 -7.7734375 36.796875 C-9.11816498 39.21224538 -10.49214367 40.51211706 -12.625 42.25 C-13.57246094 43.03117187 -13.57246094 43.03117187 -14.5390625 43.828125 C-15.02117188 44.21484375 -15.50328125 44.6015625 -16 45 C-18.72684869 42.42464291 -20.99051217 40.0143755 -23.0625 36.875 C-24.86419333 34.20151957 -26.31991472 32.72291197 -29 31 C-28.43006922 27.25271826 -26.91151825 25.54770247 -24.24609375 22.91796875 C-23.47330078 22.15033203 -22.70050781 21.38269531 -21.90429688 20.59179688 C-20.68323242 19.40166992 -20.68323242 19.40166992 -19.4375 18.1875 C-18.65052734 17.40568359 -17.86355469 16.62386719 -17.05273438 15.81835938 C-12.70028395 11.52331967 -8.25623929 7.3832863 -3.61352539 3.40356445 C-2.36508275 2.31757614 -1.17003838 1.17003838 0 0 Z " fill="#F14A24" transform="translate(40,79)"/>
<path d="M0 0 C0 3 0 3 -5 9 C5.89 8.67 16.78 8.34 28 8 C27.67 9.65 27.34 11.3 27 13 C27.66 13 28.32 13 29 13 C29 12.34 29 11.68 29 11 C31.31 11 33.62 11 36 11 C35.67 11.99 35.34 12.98 35 14 C20.81 14 6.62 14 -8 14 C-6.875 6.125 -6.875 6.125 -3.4375 3.0625 C-2.79683594 2.47597656 -2.15617187 1.88945312 -1.49609375 1.28515625 C-0.75552734 0.64900391 -0.75552734 0.64900391 0 0 Z " fill="#F3482B" transform="translate(86,153)"/>
<path d="M0 0 C3.20815804 1.60407902 4.66358318 2.41713934 7.015625 4.8203125 C7.54414062 5.35527344 8.07265625 5.89023438 8.6171875 6.44140625 C9.15601562 6.99699219 9.69484375 7.55257812 10.25 8.125 C10.80429688 8.68832031 11.35859375 9.25164062 11.9296875 9.83203125 C13.29104485 11.21686028 14.64614859 12.60783204 16 14 C15.34 14.66 14.68 15.32 14 16 C14 15.34 14 14.68 14 14 C11.525 13.505 11.525 13.505 9 13 C8.67 12.01 8.34 11.02 8 10 C6.64455078 10.10828125 6.64455078 10.10828125 5.26171875 10.21875 C3.49248047 10.35796875 3.49248047 10.35796875 1.6875 10.5 C0.51574219 10.5928125 -0.65601563 10.685625 -1.86328125 10.78125 C-3.905194 10.92364989 -5.9531279 11 -8 11 C-8.268125 12.134375 -8.53625 13.26875 -8.8125 14.4375 C-9.204375 15.613125 -9.59625 16.78875 -10 18 C-13 19 -13 19 -16 19 C-16.66 18.67 -17.32 18.34 -18 18 C-12.06 12.06 -6.12 6.12 0 0 Z " fill="#F9EEE8" transform="translate(98,109)"/>
<path d="M0 0 C-1.28965176 1.37562854 -2.62689293 2.70766393 -4 4 C-4.66 4 -5.32 4 -6 4 C-6.33 4.99 -6.66 5.98 -7 7 C-8.42578125 8.40234375 -8.42578125 8.40234375 -10.3125 9.9375 C-16.22250869 14.93745301 -21.56718254 20.49474497 -27 26 C-27.99894792 27.00105097 -28.99829206 28.00171086 -30 29 C-29.34 26.36 -28.68 23.72 -28 21 C-26.68 21 -25.36 21 -24 21 C-24.66 19.02 -25.32 17.04 -26 15 C-25.01 15 -24.02 15 -23 15 C-23 14.34 -23 13.68 -23 13 C-22.34 13 -21.68 13 -21 13 C-21 12.34 -21 11.68 -21 11 C-20.01 11 -19.02 11 -18 11 C-18.66 10.67 -19.32 10.34 -20 10 C-20 9.34 -20 8.68 -20 8 C-19.278125 7.7525 -18.55625 7.505 -17.8125 7.25 C-14.93066279 6.11678413 -14.93066279 6.11678413 -12.625 4.0625 C-8.7628475 1.02795161 -4.93909477 -1.64636492 0 0 Z " fill="#F3FBF6" transform="translate(39,81)"/>
<path d="M0 0 C5.01202555 2.98334854 8.38748484 6.43951988 12 11 C9.45061185 12.27469407 7.66959002 12.12016184 4.81591797 12.11352539 C3.73494843 12.11344986 2.65397888 12.11337433 1.54025269 12.11329651 C-0.21603958 12.10555458 -0.21603958 12.10555458 -2.0078125 12.09765625 C-3.20356903 12.0962413 -4.39932556 12.09482635 -5.63131714 12.09336853 C-9.46256987 12.08775663 -13.29376484 12.07520208 -17.125 12.0625 C-19.71744707 12.05748653 -22.30989506 12.05292336 -24.90234375 12.04882812 C-31.26824898 12.03778333 -37.63412037 12.02103359 -44 12 C-44 11.34 -44 10.68 -44 10 C-42.25 8.4921875 -42.25 8.4921875 -40 6.875 C-39.2575 6.33617187 -38.515 5.79734375 -37.75 5.2421875 C-37.1725 4.83226562 -36.595 4.42234375 -36 4 C-36.33 5.98 -36.66 7.96 -37 10 C-22.81 9.67 -8.62 9.34 6 9 C6.33 8.34 6.66 7.68 7 7 C6.01 6.67 5.02 6.34 4 6 C1.8125 4.0625 1.8125 4.0625 0 2 C0 1.34 0 0.68 0 0 Z " fill="#DE5634" transform="translate(115,157)"/>
<path d="M0 0 C2.64 0 5.28 0 8 0 C7.67 0.99 7.34 1.98 7 3 C5.68 3 4.36 3 3 3 C1.30265575 4.12070603 1.30265575 4.12070603 -0.20800781 5.75390625 C-0.80832825 6.35452881 -1.40864868 6.95515137 -2.02716064 7.57397461 C-2.66272888 8.23018799 -3.29829712 8.88640137 -3.953125 9.5625 C-4.61334656 10.22838135 -5.27356812 10.8942627 -5.95379639 11.58032227 C-8.06209018 13.71102148 -10.15606155 15.85520053 -12.25 18 C-13.67616209 19.44622154 -15.10323466 20.89154584 -16.53125 22.3359375 C-20.03148655 25.88029686 -23.51893954 29.43680926 -27 33 C-28.51953125 31.63671875 -28.51953125 31.63671875 -30 30 C-29.6875 27.8125 -29.6875 27.8125 -29 26 C-27.35 26 -25.7 26 -24 26 C-23.773125 25.38125 -23.54625 24.7625 -23.3125 24.125 C-22 22 -22 22 -19.5 21.0625 C-16.76041667 20.23958333 -16.76041667 20.23958333 -15.9375 17.5 C-15.628125 16.675 -15.31875 15.85 -15 15 C-13.68352881 14.30062468 -12.34977849 13.63270867 -11 13 C-10.32311438 11.67182528 -9.6580073 10.33762798 -9 9 C-7.99564028 7.71983165 -6.95309739 6.46871878 -5.875 5.25 C-5.33617188 4.63640625 -4.79734375 4.0228125 -4.2421875 3.390625 C-3.83226563 2.93171875 -3.42234375 2.4728125 -3 2 C-2.34 2.33 -1.68 2.66 -1 3 C-0.67 2.01 -0.34 1.02 0 0 Z " fill="#ED4C35" transform="translate(96,47)"/>
<path d="M0 0 C1.1725131 0.95117134 2.33787015 1.91117009 3.5 2.875 C4.1496875 3.40867188 4.799375 3.94234375 5.46875 4.4921875 C6.22671875 5.23855469 6.22671875 5.23855469 7 6 C7 6.66 7 7.32 7 8 C7.598125 8.2475 8.19625 8.495 8.8125 8.75 C11.28647521 10.16370012 12.43370255 11.65055383 14 14 C11.16032769 14 8.76264289 13.59732819 6 13 C5.8453125 14.8871875 5.8453125 14.8871875 5.6875 16.8125 C5.35141192 19.60499657 5.19974124 20.74433121 3.4375 23 C2.963125 23.33 2.48875 23.66 2 24 C2.33 24.99 2.66 25.98 3 27 C3.5775 27.28875 4.155 27.5775 4.75 27.875 C7.76030003 29.38015001 9.70147544 31.57377963 12 34 C11.67 34.99 11.34 35.98 11 37 C10.29875 36.278125 9.5975 35.55625 8.875 34.8125 C7.00250705 32.92418317 5.17060681 31.34707345 3.0625 29.6875 C-0.65082751 26.67825797 -3.27628319 22.89240382 -6 19 C-4.02 19 -2.04 19 0 19 C0.66 17.02 1.32 15.04 2 13 C2.66 13 3.32 13 4 13 C3.67 11.68 3.34 10.36 3 9 C3.99 9.33 4.98 9.66 6 10 C5.54625 9.54625 5.0925 9.0925 4.625 8.625 C1.64638973 5.64638973 0.66366559 4.2032154 0 0 Z " fill="#FA462F" transform="translate(110,31)"/>
<path d="M0 0 C6.64615385 3.32307692 6.64615385 3.32307692 8.4375 6.75 C8.623125 7.4925 8.80875 8.235 9 9 C9.66 9 10.32 9 11 9 C11 9.99 11 10.98 11 12 C9.35 12.33 7.7 12.66 6 13 C6.66 13 7.32 13 8 13 C8 13.66 8 14.32 8 15 C2.45378151 15.12605042 2.45378151 15.12605042 -0.25 14.375 C-0.8275 14.25125 -1.405 14.1275 -2 14 C-2.66 14.66 -3.32 15.32 -4 16 C-4.66 15.67 -5.32 15.34 -6 15 C-6 13 -6 13 -4 11 C-3.34 10.67 -2.68 10.34 -2 10 C-1.5709742 7.90658482 -1.5709742 7.90658482 -1.4375 5.5 C-1.09605489 1.09605489 -1.09605489 1.09605489 0 0 Z " fill="#F6482A" transform="translate(176,99)"/>
<path d="M0 0 C0.66 0.66 1.32 1.32 2 2 C-1.09015221 5.13949141 -4.18674696 8.27243757 -7.28955078 11.39941406 C-8.34474509 12.4646826 -9.39813964 13.53173697 -10.44970703 14.60058594 C-11.95919727 16.13426216 -13.47498699 17.66145568 -14.9921875 19.1875 C-16.35899658 20.57001953 -16.35899658 20.57001953 -17.75341797 21.98046875 C-20 24 -20 24 -22 24 C-22.33 24.99 -22.66 25.98 -23 27 C-24 24 -24 24 -23.125 22.125 C-22.75375 21.42375 -22.3825 20.7225 -22 20 C-21.896875 19.175 -21.79375 18.35 -21.6875 17.5 C-20.72979251 14.0174273 -18.98219538 12.9171256 -16 11 C-15.01 11 -14.02 11 -13 11 C-12.67 10.01 -12.34 9.02 -12 8 C-10.9171875 7.9071875 -10.9171875 7.9071875 -9.8125 7.8125 C-6.16149678 6.75776574 -4.57909045 4.71850074 -2 2 C-1.34 2 -0.68 2 0 2 C0 1.34 0 0.68 0 0 Z " fill="#F8F3ED" transform="translate(78,97)"/>
<path d="M0 0 C0.99 0.33 1.98 0.66 3 1 C0.05226582 3.99707817 -2.90191208 6.98760494 -5.86230469 9.97216797 C-6.86899728 10.98893399 -7.87388966 12.00748562 -8.87695312 13.02783203 C-10.31694371 14.49201218 -11.76323256 15.94970205 -13.2109375 17.40625 C-14.08024902 18.28603516 -14.94956055 19.16582031 -15.84521484 20.07226562 C-18 22 -18 22 -20 22 C-20.33 21.01 -20.66 20.02 -21 19 C-20.05125 18.2575 -19.1025 17.515 -18.125 16.75 C-15.67467599 14.72154781 -14.12674637 13.0422152 -13 10 C-13.66 10 -14.32 10 -15 10 C-15 9.01 -15 8.02 -15 7 C-14.34 6.67 -13.68 6.34 -13 6 C-12.67 5.01 -12.34 4.02 -12 3 C-11.01 3 -10.02 3 -9 3 C-9 3.66 -9 4.32 -9 5 C-6.52733235 4.65555119 -6.52733235 4.65555119 -4 4 C-3.67 3.34 -3.34 2.68 -3 2 C-2.01 2 -1.02 2 0 2 C0 1.34 0 0.68 0 0 Z " fill="#E85028" transform="translate(79,125)"/>
<path d="M0 0 C0.99 0.33 1.98 0.66 3 1 C3 1.66 3 2.32 3 3 C3.99 3.33 4.98 3.66 6 4 C3.3333581 5.33332095 1.83319697 4.67102033 -1 4 C-1.185625 4.70125 -1.37125 5.4025 -1.5625 6.125 C-3.29741498 9.59482995 -5.43266389 11.29725491 -8.44140625 13.66796875 C-10.13049223 14.93649295 -10.13049223 14.93649295 -11 17 C-11.66 17 -12.32 17 -13 17 C-13 17.66 -13 18.32 -13 19 C-12.34 19.33 -11.68 19.66 -11 20 C-13.58302505 23.30053201 -15.99241477 23.39015007 -20 24 C-20.33 24.66 -20.66 25.32 -21 26 C-22.32 25.67 -23.64 25.34 -25 25 C-22.05226582 22.00292183 -19.09808792 19.01239506 -16.13769531 16.02783203 C-15.13100272 15.01106601 -14.12611034 13.99251438 -13.12304688 12.97216797 C-11.68305629 11.50798782 -10.23676744 10.05029795 -8.7890625 8.59375 C-7.48509521 7.27407227 -7.48509521 7.27407227 -6.15478516 5.92773438 C-4 4 -4 4 -2 4 C-1.34 2.68 -0.68 1.36 0 0 Z " fill="#E94E36" transform="translate(98,80)"/>
<path d="M0 0 C0.66 0 1.32 0 2 0 C3.375 1.3984375 3.375 1.3984375 5 3.375 C8.76222012 7.82921409 12.86058282 11.85683532 17.05859375 15.8984375 C19 18 19 18 19 20 C17.68 19.67 16.36 19.34 15 19 C15 18.01 15 17.02 15 16 C13.35 15.67 11.7 15.34 10 15 C10 15.99 10 16.98 10 18 C9.01 17.67 8.02 17.34 7 17 C7.66 15.35 8.32 13.7 9 12 C8.505 11.54625 8.01 11.0925 7.5 10.625 C6 9 6 9 6 7 C4.02 6.34 2.04 5.68 0 5 C0 3.35 0 1.7 0 0 Z M5 19 C5.33 19 5.66 19 6 19 C6 21.31 6 23.62 6 26 C5.01 26.33 4.02 26.66 3 27 C3 27.66 3 28.32 3 29 C3.66 29 4.32 29 5 29 C5.33 29.99 5.66 30.98 6 32 C3 32 3 32 1.17578125 30.46875 C0.56089844 29.8190625 -0.05398437 29.169375 -0.6875 28.5 C-1.31011719 27.8503125 -1.93273437 27.200625 -2.57421875 26.53125 C-3.04472656 26.0259375 -3.51523438 25.520625 -4 25 C-3.67 24.34 -3.34 23.68 -3 23 C-2.34 23.66 -1.68 24.32 -1 25 C-0.01 25 0.98 25 2 25 C2.309375 24.195625 2.61875 23.39125 2.9375 22.5625 C4 20 4 20 5 19 Z " fill="#E55438" transform="translate(104,85)"/>
<path d="M0 0 C0.99 0.33 1.98 0.66 3 1 C-10 14 -23 27 -36 40 C-36.33 38.68 -36.66 37.36 -37 36 C-33.25 33 -33.25 33 -31 33 C-31.495 31.515 -31.495 31.515 -32 30 C-30.68 30 -29.36 30 -28 30 C-27.773125 29.443125 -27.54625 28.88625 -27.3125 28.3125 C-25.25194706 24.68200197 -22.59352047 21.77399565 -18.8125 19.9375 C-16.42469435 18.70242811 -16.16389103 17.39624623 -15 15 C-13.35570171 13.31126121 -11.68615782 11.64694485 -10 10 C-9.175 8.989375 -8.35 7.97875 -7.5 6.9375 C-5.15401149 4.18096351 -3.02243675 1.98844523 0 0 Z " fill="#FCE2D0" transform="translate(76,40)"/>
<path d="M0 0 C6.41007253 5.27050408 12.17835381 11.09811672 18 17 C19.33221711 18.33444863 20.66510447 19.66823069 22 21 C21.67 21.66 21.34 22.32 21 23 C18 22 15 21 12 20 C12 19.34 12 18.68 12 18 C10.68 18 9.36 18 8 18 C8 15.69 8 13.38 8 11 C7.34 11 6.68 11 6 11 C2.60980925 7.44443409 0.44508041 5.04424468 0 0 Z M10 13 C10.66 13.66 11.32 14.32 12 15 C12 14.34 12 13.68 12 13 C11.34 13 10.68 13 10 13 Z " fill="#FAE8E1" transform="translate(148,94)"/>
<path d="M0 0 C3.04386724 -0.08226668 5.07175348 0.02391783 8 1 C7.25 5.75 7.25 5.75 5 8 C4.28072705 10.31765729 3.6090107 12.65095874 3 15 C0.125 14.75 0.125 14.75 -3 14 C-4.375 11.9375 -4.375 11.9375 -5 10 C-4.01 9.34 -3.02 8.68 -2 8 C-1.21011855 6.04614933 -1.21011855 6.04614933 -0.8125 3.875 C-0.544375 2.59625 -0.27625 1.3175 0 0 Z " fill="#F5481D" transform="translate(116,44)"/>
<path d="M0 0 C5.58638083 2.23455233 5.58638083 2.23455233 8 5.375 C9.87356214 7.70848049 11.44034882 9.35227905 13.8125 11.25 C16 13 16 13 17 16 C14.69 15.67 12.38 15.34 10 15 C9.67 12.69 9.34 10.38 9 8 C7.68 7.67 6.36 7.34 5 7 C5 7.66 5 8.32 5 9 C3.68 9.33 2.36 9.66 1 10 C1 9.01 1 8.02 1 7 C0.34 7 -0.32 7 -1 7 C-1 6.01 -1 5.02 -1 4 C-3.64 6.64 -6.28 9.28 -9 12 C-9.66 11.67 -10.32 11.34 -11 11 C-7.37 7.37 -3.74 3.74 0 0 Z " fill="#E94A21" transform="translate(98,141)"/>
<path d="M0 0 C0.33 0.66 0.66 1.32 1 2 C0.690625 2.763125 0.38125 3.52625 0.0625 4.3125 C-1.04184216 7.10583605 -1.1696523 9.03108472 -1 12 C-4.13349732 13.04449911 -4.98968256 12.93423645 -8 12 C-8.61875 12.825 -9.2375 13.65 -9.875 14.5 C-10.926875 15.7375 -10.926875 15.7375 -12 17 C-12.66 17 -13.32 17 -14 17 C-14 17.66 -14 18.32 -14 19 C-16.88229224 20.92152816 -19.90127153 22.46387819 -23 24 C-22.10698344 22.93513145 -21.2104053 21.87324959 -20.3125 20.8125 C-19.81363281 20.22082031 -19.31476562 19.62914063 -18.80078125 19.01953125 C-16.62515032 16.57961543 -14.32512283 14.29808652 -12 12 C-10.96157467 10.96290492 -9.92384143 9.92511651 -8.88671875 8.88671875 C-5.92447917 5.92447917 -2.96223958 2.96223958 0 0 Z " fill="#F6F8EF" transform="translate(49,99)"/>
<path d="M0 0 C0.66 0.33 1.32 0.66 2 1 C0.37660195 2.70884005 -1.29319053 4.37446717 -3 6 C-3.66 6 -4.32 6 -5 6 C-5.38285156 6.88945313 -5.38285156 6.88945313 -5.7734375 7.796875 C-7.11816498 10.21224538 -8.49214367 11.51211706 -10.625 13.25 C-11.25664062 13.77078125 -11.88828125 14.2915625 -12.5390625 14.828125 C-13.02117188 15.21484375 -13.50328125 15.6015625 -14 16 C-17.58806317 12.61127367 -20.45684799 9.23858668 -23 5 C-23 4.34 -23 3.68 -23 3 C-22.34 3 -21.68 3 -21 3 C-21 3.99 -21 4.98 -21 6 C-20.01 6.33 -19.02 6.66 -18 7 C-17.67 7.66 -17.34 8.32 -17 9 C-13.80097361 9.08886184 -11.07322544 8.91058531 -8 8 C-8.33 6.68 -8.66 5.36 -9 4 C-7.88625 3.71125 -6.7725 3.4225 -5.625 3.125 C-1.99708908 2.30758671 -1.99708908 2.30758671 0 0 Z " fill="#E65943" transform="translate(38,108)"/>
<path d="M0 0 C0 3 0 3 -2.703125 5.890625 C-4.46372945 7.57936805 -6.24453967 9.24489969 -8.02734375 10.91015625 C-10.9132003 13.67928152 -13.27994108 16.20667027 -15.1953125 19.73828125 C-17.59290546 24.0715932 -19.83352184 25.4538189 -24 28 C-24.66 28 -25.32 28 -26 28 C-26.33 28.99 -26.66 29.98 -27 31 C-29.0625 31.6875 -29.0625 31.6875 -31 32 C-25.19316781 24.88094773 -18.63714556 18.52625188 -12.125 12.0625 C-10.94768362 10.89020796 -9.77059826 9.71768386 -8.59375 8.54492188 C-5.73182511 5.69393018 -2.86678543 2.84610385 0 0 Z " fill="#DB5340" transform="translate(72,47)"/>
<path d="M0 0 C3.78611227 0.54087318 5.55400767 2.11722332 8 5 C8 5.66 8 6.32 8 7 C9.98 7 11.96 7 14 7 C13.9278125 7.63808594 13.855625 8.27617188 13.78125 8.93359375 C13.6884375 9.75988281 13.595625 10.58617188 13.5 11.4375 C13.4071875 12.26121094 13.314375 13.08492187 13.21875 13.93359375 C13.05543721 15.4639499 13.05543721 15.4639499 13 17 C13 17.99 13 18.98 13 20 C12.2575 20.12375 11.515 20.2475 10.75 20.375 C8.02462728 20.86889456 8.02462728 20.86889456 5.875 22.125 C4 23 4 23 1 22 C1.55429688 21.54109375 2.10859375 21.0821875 2.6796875 20.609375 C3.40414062 19.99578125 4.12859375 19.3821875 4.875 18.75 C5.59429687 18.14671875 6.31359375 17.5434375 7.0546875 16.921875 C8.97052118 15.02912366 9.96449045 13.46342273 11 11 C10.45730469 10.54109375 9.91460937 10.0821875 9.35546875 9.609375 C8.64003906 8.99578125 7.92460937 8.3821875 7.1875 7.75 C6.47980469 7.14671875 5.77210938 6.5434375 5.04296875 5.921875 C3.08110329 4.07629602 1.54330375 2.20054668 0 0 Z " fill="#F9EEE3" transform="translate(178,97)"/>
<path d="M0 0 C4.19519242 3.46559374 8.11235081 7.06505375 11.9375 10.9375 C16.1230626 15.17434055 20.44878594 19.16070769 25 23 C24.34 23.33 23.68 23.66 23 24 C22.566875 23.54625 22.13375 23.0925 21.6875 22.625 C19.89201658 20.79975666 19.89201658 20.79975666 17 19 C16.175 18.154375 15.35 17.30875 14.5 16.4375 C12.1747083 13.81609342 12.1747083 13.81609342 9 13 C8.67 12.34 8.34 11.68 8 11 C6.02 11 4.04 11 2 11 C2 8 2 8 4 6 C3.34 5.67 2.68 5.34 2 5 C1.67 6.32 1.34 7.64 1 9 C0.01 9 -0.98 9 -2 9 C-2 7.68 -2 6.36 -2 5 C-1.34 4.67 -0.68 4.34 0 4 C0 2.68 0 1.36 0 0 Z " fill="#E15838" transform="translate(130,51)"/>
<path d="M0 0 C1.98 0 3.96 0 6 0 C6.33 0.66 6.66 1.32 7 2 C6.34 2 5.68 2 5 2 C5 2.66 5 3.32 5 4 C6.98 3.34 8.96 2.68 11 2 C11.15855469 2.60328125 11.31710938 3.2065625 11.48046875 3.828125 C13.0230206 9.11200428 14.2729022 11.84860147 19 15 C19.99 16.485 19.99 16.485 21 18 C20.67 18.99 20.34 19.98 20 21 C17.65861457 18.71643754 15.32833018 16.42186626 13 14.125 C12.33226563 13.47402344 11.66453125 12.82304688 10.9765625 12.15234375 C10.34492187 11.52714844 9.71328125 10.90195313 9.0625 10.2578125 C8.47597656 9.6817627 7.88945313 9.10571289 7.28515625 8.51220703 C6 7 6 7 6 5 C5.195625 4.731875 4.39125 4.46375 3.5625 4.1875 C2.716875 3.795625 1.87125 3.40375 1 3 C0.67 2.01 0.34 1.02 0 0 Z " fill="#F5F0EE" transform="translate(100,80)"/>
<path d="M0 0 C3.63 0 7.26 0 11 0 C12.125 6.75 12.125 6.75 11 9 C11.66 9 12.32 9 13 9 C13 9.66 13 10.32 13 11 C13.66 11 14.32 11 15 11 C15 11.66 15 12.32 15 13 C15.66 13 16.32 13 17 13 C16.67 13.99 16.34 14.98 16 16 C10.35573231 11.31645873 4.9941954 6.3792354 0 1 C0 0.67 0 0.34 0 0 Z " fill="#F4FCF8" transform="translate(132,112)"/>
<path d="M0 0 C2 0.875 2 0.875 4 2 C4.66 2.33 5.32 2.66 6 3 C6 3.66 6 4.32 6 5 C6.66 5 7.32 5 8 5 C7.42655063 7.86724686 7.1385485 8.8614515 5 11 C4.34 10.67 3.68 10.34 3 10 C3 10.99 3 11.98 3 13 C2.01 12.67 1.02 12.34 0 12 C-0.33 10.35 -0.66 8.7 -1 7 C-1.99 7 -2.98 7 -4 7 C-3.67 6.01 -3.34 5.02 -3 4 C-2.34 3.67 -1.68 3.34 -1 3 C-1.33 2.34 -1.66 1.68 -2 1 C-1.34 0.67 -0.68 0.34 0 0 Z " fill="#F74626" transform="translate(148,133)"/>
<path d="M0 0 C0.33 0.99 0.66 1.98 1 3 C1.99 3.33 2.98 3.66 4 4 C2.28881488 7.00631739 0.55350857 9.64767696 -2 12 C-5.11209905 12.68820402 -7.86777159 12.50115655 -11 12 C-10.01 9.69 -9.02 7.38 -8 5 C-8.66 5 -9.32 5 -10 5 C-9.67 4.34 -9.34 3.68 -9 3 C-8.34 3.33 -7.68 3.66 -7 4 C-7 4.66 -7 5.32 -7 6 C-3.73539027 4.19587357 -2.11070205 3.16605307 0 0 Z " fill="#F6FCFB" transform="translate(59,147)"/>
<path d="M0 0 C0.33 1.98 0.66 3.96 1 6 C0.01 5.34 -0.98 4.68 -2 4 C-8.3650884 4.39616733 -13.94532349 11.68953723 -17.9140625 16.15234375 C-18.69910156 17.09787109 -18.69910156 17.09787109 -19.5 18.0625 C-20.7375 19.5165625 -20.7375 19.5165625 -22 21 C-22.66 21 -23.32 21 -24 21 C-23.34 19.35 -22.68 17.7 -22 16 C-21.01 16 -20.02 16 -19 16 C-17.79371992 13.66785852 -16.8345262 11.50357861 -16 9 C-12.55555556 6 -12.55555556 6 -10 6 C-10 5.01 -10 4.02 -10 3 C-6.62637846 0.39749195 -4.23092172 -0.36265043 0 0 Z " fill="#FCF3DD" transform="translate(103,19)"/>
<path d="M0 0 C0.66 1.32 1.32 2.64 2 4 C1.34 4 0.68 4 0 4 C0.33 4.99 0.66 5.98 1 7 C-4.16923077 12.90769231 -4.16923077 12.90769231 -8.375 13.375 C-9.24125 13.25125 -10.1075 13.1275 -11 13 C-11 11.68 -11 10.36 -11 9 C-9.35546875 7.40234375 -9.35546875 7.40234375 -7.1875 5.9375 C-4.53754708 4.11776912 -2.20612913 2.34531708 0 0 Z " fill="#F5FBFD" transform="translate(153,145)"/>
<path d="M0 0 C4.93211711 2.17593402 6.85238224 5.55338567 9.47265625 10.0390625 C11.26929907 12.3457497 12.21186567 12.47686552 15 13 C16.25 15.0625 16.25 15.0625 17 17 C13.66666667 17 10.33333333 17 7 17 C7.33 15.35 7.66 13.7 8 12 C7.34 12 6.68 12 6 12 C5.87625 11.071875 5.87625 11.071875 5.75 10.125 C5.37875 9.073125 5.37875 9.073125 5 8 C4.34 7.71125 3.68 7.4225 3 7.125 C2.34 6.75375 1.68 6.3825 1 6 C0.25 2.875 0.25 2.875 0 0 Z " fill="#EFFBEE" transform="translate(11,110)"/>
<path d="M0 0 C0.66 0.66 1.32 1.32 2 2 C1.29875 2.515625 0.5975 3.03125 -0.125 3.5625 C-3.49467357 6.41939716 -6.21156604 9.58871997 -9 13 C-11 11.625 -11 11.625 -13 10 C-13 9.34 -13 8.68 -13 8 C-14.32 7.67 -15.64 7.34 -17 7 C-16.67 6.01 -16.34 5.02 -16 4 C-11.39641944 3.87212276 -11.39641944 3.87212276 -9.0625 4.625 C-5.94652735 5.19154048 -3.84513372 4.26450387 -1 3 C-0.67 2.01 -0.34 1.02 0 0 Z " fill="#F6F6EF" transform="translate(52,123)"/>
<path d="M0 0 C4 0 4 0 6.25 1.8125 C8 4 8 4 8 7 C6.35 7 4.7 7 3 7 C3.99 7.66 4.98 8.32 6 9 C6.6875 11.125 6.6875 11.125 7 13 C7.66 13 8.32 13 9 13 C8.67 13.99 8.34 14.98 8 16 C3.58690458 12.84778899 0.99206986 9.44536093 -2 5 C-1.34 5 -0.68 5 0 5 C-0.2784375 4.0409375 -0.2784375 4.0409375 -0.5625 3.0625 C-0.7790625 2.0415625 -0.7790625 2.0415625 -1 1 C-0.67 0.67 -0.34 0.34 0 0 Z " fill="#FBF4EE" transform="translate(152,64)"/>
<path d="M0 0 C0 0.99 0 1.98 0 3 C1.65 3.33 3.3 3.66 5 4 C5 3.01 5 2.02 5 1 C5.99 1.33 6.98 1.66 8 2 C7.0919838 3.13199353 6.17316174 4.25532363 5.25 5.375 C4.73953125 6.00148437 4.2290625 6.62796875 3.703125 7.2734375 C2 9 2 9 -2 11 C-4.31 8.69 -6.62 6.38 -9 4 C-8.34 3.67 -7.68 3.34 -7 3 C-5 4.375 -5 4.375 -3 6 C-3 6.66 -3 7.32 -3 8 C-2.01 8 -1.02 8 0 8 C0 7.01 0 6.02 0 5 C-1.32 4.67 -2.64 4.34 -4 4 C-4 3.01 -4 2.02 -4 1 C-2 0 -2 0 0 0 Z " fill="#E25228" transform="translate(146,142)"/>
<path d="M0 0 C2.66666667 1.33333333 5.33333333 2.66666667 8 4 C8.66 3.34 9.32 2.68 10 2 C10 2.66 10 3.32 10 4 C10.66 4 11.32 4 12 4 C12 4.99 12 5.98 12 7 C13.32 7.66 14.64 8.32 16 9 C16 11.31 16 13.62 16 16 C10.35573231 11.31645873 4.9941954 6.3792354 0 1 C0 0.67 0 0.34 0 0 Z " fill="#FBEDE7" transform="translate(128,48)"/>
<path d="M0 0 C2.475 0.495 2.475 0.495 5 1 C5 1.66 5 2.32 5 3 C6.65 2.67 8.3 2.34 10 2 C11.80864343 5.84336729 12.43280993 8.75846268 12 13 C10.5 16.375 10.5 16.375 9 19 C8.67 18.34 8.34 17.68 8 17 C7.34 16.67 6.68 16.34 6 16 C7.32 14.35 8.64 12.7 10 11 C9.278125 10.28972656 8.55625 9.57945312 7.8125 8.84765625 C6.884375 7.92855469 5.95625 7.00945312 5 6.0625 C4.071875 5.14597656 3.14375 4.22945312 2.1875 3.28515625 C0 1 0 1 0 0 Z " fill="#FDE6E1" transform="translate(148,128)"/>
<path d="M0 0 C1.31896465 0.92838287 2.62998689 1.86805732 3.9375 2.8125 C4.66839844 3.33457031 5.39929688 3.85664062 6.15234375 4.39453125 C8 6 8 6 9 9 C7.68 9 6.36 9 5 9 C4.67 9.99 4.34 10.98 4 12 C2.68 12 1.36 12 0 12 C0 11.01 0 10.02 0 9 C-0.66 8.67 -1.32 8.34 -2 8 C-1.67 7.236875 -1.34 6.47375 -1 5.6875 C0.17436686 3.00930865 0.17436686 3.00930865 0 0 Z " fill="#FBFAF7" transform="translate(114,124)"/>
<path d="M0 0 C1.32 1.32 2.64 2.64 4 4 C1.45061185 5.27469407 -0.33040998 5.12016184 -3.18408203 5.11352539 C-4.26505157 5.11344986 -5.34602112 5.11337433 -6.45974731 5.11329651 C-8.21603958 5.10555458 -8.21603958 5.10555458 -10.0078125 5.09765625 C-11.20356903 5.0962413 -12.39932556 5.09482635 -13.63131714 5.09336853 C-17.46256987 5.08775663 -21.29376484 5.07520208 -25.125 5.0625 C-27.71744707 5.05748653 -30.30989506 5.05292336 -32.90234375 5.04882812 C-39.26824898 5.03778333 -45.63412037 5.02103359 -52 5 C-51.67 4.34 -51.34 3.68 -51 3 C-34.17 3 -17.34 3 0 3 C0 2.01 0 1.02 0 0 Z " fill="#CA5E3F" transform="translate(123,164)"/>
<path d="M0 0 C0.99 0.33 1.98 0.66 3 1 C2.75378906 1.57234375 2.50757813 2.1446875 2.25390625 2.734375 C1.71763112 5.14710686 1.71763112 5.14710686 3.65234375 7.140625 C4.78349609 8.18476563 4.78349609 8.18476563 5.9375 9.25 C6.68902344 9.95640625 7.44054688 10.6628125 8.21484375 11.390625 C9.09849609 12.18726563 9.09849609 12.18726563 10 13 C9.01 14.485 9.01 14.485 8 16 C5.625 15.75 5.625 15.75 3 15 C1.2058242 12.43689172 1 11.16880694 1 8 C0.01 8 -0.98 8 -2 8 C-2 7.34 -2 6.68 -2 6 C-1.34 6 -0.68 6 0 6 C0 4.02 0 2.04 0 0 Z " fill="#F5E9D9" transform="translate(39,136)"/>
<path d="M0 0 C0 3 0 3 -1.9375 5 C-2.618125 5.66 -3.29875 6.32 -4 7 C-4.33 7.99 -4.66 8.98 -5 10 C-5.99 10 -6.98 10 -8 10 C-8.33 12.31 -8.66 14.62 -9 17 C-11.64 17 -14.28 17 -17 17 C-12.17645439 11.03403569 -6.75929081 6.05429288 -1 1 C-0.67 0.67 -0.34 0.34 0 0 Z " fill="#E14D2F" transform="translate(40,79)"/>
<path d="M0 0 C1.98 0 3.96 0 6 0 C6 0.66 6 1.32 6 2 C6.763125 2.20625 7.52625 2.4125 8.3125 2.625 C11.82229103 4.42070704 12.52599781 6.43136312 14 10 C13.01 10.66 12.02 11.32 11 12 C9.16364422 10.19047409 7.33083792 8.37759362 5.5 6.5625 C4.97535156 6.04623047 4.45070312 5.52996094 3.91015625 4.99804688 C2.58775448 3.68423213 1.29164432 2.34406495 0 1 C0 0.67 0 0.34 0 0 Z " fill="#FDF2F1" transform="translate(161,80)"/>
<path d="M0 0 C0.8125 1.9375 0.8125 1.9375 1 4 C1.185625 4.9075 1.37125 5.815 1.5625 6.75 C1.706875 7.4925 1.85125 8.235 2 9 C1.34 8.67 0.68 8.34 0 8 C0 7.34 0 6.68 0 6 C-0.99 5.67 -1.98 5.34 -3 5 C-4.70586575 3.37347684 -6.3777546 1.70993434 -8 0 C-10.49361571 1.20381448 -12.68143083 2.45428722 -15 4 C-15 3.01 -15 2.02 -15 1 C-14.34 1 -13.68 1 -13 1 C-12.773125 0.360625 -12.54625 -0.27875 -12.3125 -0.9375 C-11 -3 -11 -3 -8.75 -4 C-4.80297768 -4 -2.97300476 -2.50002673 0 0 Z " fill="#FAE9DD" transform="translate(108,142)"/>
<path d="M0 0 C0.36491677 4.5006402 0.36491677 4.5006402 -1.1875 6.625 C-6.95454545 11 -6.95454545 11 -10 11 C-10.185625 11.556875 -10.37125 12.11375 -10.5625 12.6875 C-12.66360714 16.06754192 -15.70665994 17.85140381 -19 20 C-17.576445 16.75723273 -15.84528935 14.59906696 -13.33984375 12.109375 C-12.62892578 11.40039062 -11.91800781 10.69140625 -11.18554688 9.9609375 C-10.44369141 9.23132813 -9.70183594 8.50171875 -8.9375 7.75 C-8.19177734 7.00492188 -7.44605469 6.25984375 -6.67773438 5.4921875 C-1.14028159 0 -1.14028159 0 0 0 Z " fill="#FBEDE0" transform="translate(80,128)"/>
<path d="M0 0 C0.33 1.32 0.66 2.64 1 4 C-0.32 4.33 -1.64 4.66 -3 5 C-3.061875 5.763125 -3.12375 6.52625 -3.1875 7.3125 C-4.28745772 10.95082167 -5.69519258 11.17180866 -9 13 C-11.73693259 15.25543519 -14.37161109 17.61944925 -17 20 C-17.66 19.67 -18.32 19.34 -19 19 C-12.66666667 12.66666667 -6.33333333 6.33333333 0 0 Z " fill="#D65C44" transform="translate(72,106)"/>
<path d="M0 0 C6.64615385 3.32307692 6.64615385 3.32307692 8.4375 6.75 C8.623125 7.4925 8.80875 8.235 9 9 C9.66 9 10.32 9 11 9 C11 9.99 11 10.98 11 12 C8.1875 11.8125 8.1875 11.8125 5 11 C3.3125 8.5 3.3125 8.5 2 6 C1.01 5.67 0.02 5.34 -1 5 C-0.67 3.35 -0.34 1.7 0 0 Z " fill="#F9441F" transform="translate(176,99)"/>
<path d="M0 0 C0.66 0.99 1.32 1.98 2 3 C1.360625 3.763125 0.72125 4.52625 0.0625 5.3125 C-2.14232781 7.88246713 -2.14232781 7.88246713 -3 11 C-4.9375 11.625 -4.9375 11.625 -7 12 C-7.99 12.495 -7.99 12.495 -9 13 C-11 10 -11 10 -11 7 C-10.071875 6.938125 -9.14375 6.87625 -8.1875 6.8125 C-4.82154642 6.32350588 -4.82154642 6.32350588 -3.25 3.5 C-2.8375 2.675 -2.425 1.85 -2 1 C-1.34 0.67 -0.68 0.34 0 0 Z " fill="#EB4C1C" transform="translate(89,50)"/>
<path d="M0 0 C0.66 0.33 1.32 0.66 2 1 C-2.95 5.95 -7.9 10.9 -13 16 C-13.33 14.68 -13.66 13.36 -14 12 C-12 9 -12 9 -9 8 C-8.67 7.01 -8.34 6.02 -8 5 C-5.88567224 2.38226087 -4.25904355 1.65180871 -1 1 C-0.67 0.67 -0.34 0.34 0 0 Z " fill="#D95C43" transform="translate(54,92)"/>
<path d="M0 0 C5.01202555 2.98334854 8.38748484 6.43951988 12 11 C9.69 11 7.38 11 5 11 C5 10.34 5 9.68 5 9 C4.360625 8.814375 3.72125 8.62875 3.0625 8.4375 C1 7 1 7 0.25 3.375 C0.1675 2.26125 0.085 1.1475 0 0 Z " fill="#F5F4EC" transform="translate(123,133)"/>
<path d="M0 0 C3.375 0.625 3.375 0.625 7 2 C8.1875 5 8.1875 5 9 8 C10.83284443 9.12516085 10.83284443 9.12516085 13 10 C14.70496537 11.62746694 16.37897032 13.28891311 18 15 C17.67 15.99 17.34 16.98 17 18 C16.29875 17.278125 15.5975 16.55625 14.875 15.8125 C13.00250705 13.92418317 11.17060681 12.34707345 9.0625 10.6875 C5.34917249 7.67825797 2.72371681 3.89240382 0 0 Z " fill="#DE5E41" transform="translate(104,50)"/>
<path d="M0 0 C3.01443592 1.22262018 4.80669855 3.44635181 6.98339844 5.80444336 C5.99339844 6.29944336 5.99339844 6.29944336 4.98339844 6.80444336 C4.59152344 6.30944336 4.19964844 5.81444336 3.79589844 5.30444336 C2.04802614 3.61883158 2.04802614 3.61883158 -0.45410156 3.30444336 C-4.06839983 4.00967229 -4.90678457 5.87792302 -7.01660156 8.80444336 C-9.07910156 10.67944336 -9.07910156 10.67944336 -11.01660156 11.80444336 C-12.00660156 11.47444336 -12.99660156 11.14444336 -14.01660156 10.80444336 C-12.11352328 8.93427995 -10.19637277 7.08420169 -8.26660156 5.24194336 C-7.72777344 4.70891602 -7.18894531 4.17588867 -6.63378906 3.62670898 C-2.53626577 -0.24595023 -2.53626577 -0.24595023 0 0 Z " fill="#D4634A" transform="translate(100.0166015625,22.195556640625)"/>
<path d="M0 0 C-1.39347376 3.15204981 -3.02485079 5.26171773 -5.4765625 7.671875 C-6.48203125 8.66767578 -6.48203125 8.66767578 -7.5078125 9.68359375 C-8.20648438 10.36550781 -8.90515625 11.04742187 -9.625 11.75 C-10.33140625 12.44738281 -11.0378125 13.14476563 -11.765625 13.86328125 C-13.50598703 15.58012488 -15.25084981 17.29211832 -17 19 C-17.33 17.68 -17.66 16.36 -18 15 C-14.25 12 -14.25 12 -12 12 C-12.33 11.01 -12.66 10.02 -13 9 C-11.68 9 -10.36 9 -9 9 C-8.773125 8.443125 -8.54625 7.88625 -8.3125 7.3125 C-6.49644015 4.11277551 -3.9498923 0 0 0 Z " fill="#FDD7C9" transform="translate(57,61)"/>
<path d="M0 0 C1 2 1 2 0.0625 5.125 C-0.288125 6.07375 -0.63875 7.0225 -1 8 C-2.32 7.67 -3.64 7.34 -5 7 C-5 7.66 -5 8.32 -5 9 C-6.0209375 9.8971875 -6.0209375 9.8971875 -7.0625 10.8125 C-7.701875 11.534375 -8.34125 12.25625 -9 13 C-8.85974801 15.70705512 -8.85974801 15.70705512 -8 18 C-9.32 17.01 -10.64 16.02 -12 15 C-11.42357255 11.17461786 -9.6992642 9.19443221 -7.125 6.375 C-6.42632812 5.59898437 -5.72765625 4.82296875 -5.0078125 4.0234375 C-3 2 -3 2 0 0 Z " fill="#E1573E" transform="translate(52,126)"/>
<path d="M0 0 C0.99 0.33 1.98 0.66 3 1 C3 1.66 3 2.32 3 3 C3.99 3.33 4.98 3.66 6 4 C3.3333581 5.33332095 1.83319697 4.67102033 -1 4 C-1.20625 4.763125 -1.4125 5.52625 -1.625 6.3125 C-3.43756071 9.8552323 -5.33618653 10.62606995 -9 12 C-9.66 11.67 -10.32 11.34 -11 11 C-9.88121617 9.82737096 -8.75476949 8.66204862 -7.625 7.5 C-6.68527344 6.52546875 -6.68527344 6.52546875 -5.7265625 5.53125 C-4 4 -4 4 -2 4 C-1.34 2.68 -0.68 1.36 0 0 Z " fill="#DB6650" transform="translate(98,80)"/>
<path d="M0 0 C3.99500618 1.3697164 6.80009492 3.25722422 10 6 C9.34 7.32 8.68 8.64 8 10 C6.62437146 8.71034824 5.29233607 7.37310707 4 6 C4 5.34 4 4.68 4 4 C3.01 4.33 2.02 4.66 1 5 C0.67 5.99 0.34 6.98 0 8 C-0.66 8 -1.32 8 -2 8 C-1.47731534 5.23723823 -0.89130413 2.6739124 0 0 Z " fill="#FA441C" transform="translate(130,117)"/>
<path d="M0 0 C0.33 0.99 0.66 1.98 1 3 C0.67 3.66 0.34 4.32 0 5 C-0.99 5 -1.98 5 -3 5 C-3.33 7.31 -3.66 9.62 -4 12 C-6.97 12.66 -9.94 13.32 -13 14 C-8.88380164 9.08064098 -4.59589638 4.47352044 0 0 Z " fill="#F8E7D8" transform="translate(73,75)"/>
<path d="M0 0 C0.66 0.33 1.32 0.66 2 1 C-0.40436026 4.60654039 -1.94679607 4.85452932 -6 6 C-6 6.66 -6 7.32 -6 8 C-9.88533058 7.42439547 -12.03046843 5.46229815 -15 3 C-14.00097656 2.86722656 -13.00195312 2.73445312 -11.97265625 2.59765625 C-10.68230469 2.42105469 -9.39195313 2.24445313 -8.0625 2.0625 C-6.77472656 1.88847656 -5.48695312 1.71445313 -4.16015625 1.53515625 C-1.14533687 1.33837577 -1.14533687 1.33837577 0 0 Z " fill="#FEFAF5" transform="translate(125,168)"/>
<path d="M0 0 C0.33 0.66 0.66 1.32 1 2 C-2.625 7.875 -2.625 7.875 -6 9 C-6 9.66 -6 10.32 -6 11 C-8.88229224 12.92152816 -11.90127153 14.46387819 -15 16 C-11.49169027 11.81655163 -7.91593271 7.81288185 -4 4 C-3.236875 3.236875 -2.47375 2.47375 -1.6875 1.6875 C-1.130625 1.130625 -0.57375 0.57375 0 0 Z " fill="#FCE3D1" transform="translate(41,107)"/>
<path d="M0 0 C0.99 0.66 1.98 1.32 3 2 C4.175625 2.28875 5.35125 2.5775 6.5625 2.875 C10 4 10 4 11.4375 6.125 C11.7159375 7.053125 11.7159375 7.053125 12 8 C11.01 8.33 10.02 8.66 9 9 C7.30485863 8.04906703 5.63631892 7.04892238 4 6 C3.34 6 2.68 6 2 6 C2 5.34 2 4.68 2 4 C0.68 4 -0.64 4 -2 4 C-1.34 2.68 -0.68 1.36 0 0 Z " fill="#F6F9F9" transform="translate(158,108)"/>
<path d="M0 0 C0.66 0 1.32 0 2 0 C2.33 1.32 2.66 2.64 3 4 C2.01 4 1.02 4 0 4 C-0.0825 4.61875 -0.165 5.2375 -0.25 5.875 C-1 8 -1 8 -2.875 9.25 C-5 10 -5 10 -8 10 C-6.55922954 6.63820226 -4.75249979 4.40843732 -2 2 C-1.34 2 -0.68 2 0 2 C0 1.34 0 0.68 0 0 Z " fill="#EB4E23" transform="translate(30,102)"/>
<path d="M0 0 C2.31 1.65 4.62 3.3 7 5 C5.59155282 8.21524305 3.89655214 10.32183868 1.375 12.75 C0.42753906 13.67039062 0.42753906 13.67039062 -0.5390625 14.609375 C-1.02117187 15.06828125 -1.50328125 15.5271875 -2 16 C-2.33 15.01 -2.66 14.02 -3 13 C-1.68 12.34 -0.36 11.68 1 11 C1 10.34 1 9.68 1 9 C0.34 9 -0.32 9 -1 9 C-0.67 8.34 -0.34 7.68 0 7 C1.32 7.33 2.64 7.66 4 8 C4 7.01 4 6.02 4 5 C3.34 5 2.68 5 2 5 C1.34 3.35 0.68 1.7 0 0 Z " fill="#D46246" transform="translate(183,103)"/>
<path d="M0 0 C4.6611126 3.29219361 8.60390706 6.34609485 12 11 C12.98230498 12.0173873 13.97469597 13.02596117 15 14 C11.51329166 12.8905928 8.22515763 11.73662334 5 10 C5 9.01 5 8.02 5 7 C4.34 7 3.68 7 3 7 C0 2.61538462 0 2.61538462 0 0 Z " fill="#FAE1D1" transform="translate(112,59)"/>
<path d="M0 0 C0.33 0.99 0.66 1.98 1 3 C1.99 3 2.98 3 4 3 C4.33 3.99 4.66 4.98 5 6 C5.99 6.33 6.98 6.66 8 7 C8 6.34 8 5.68 8 5 C8.99 5.33 9.98 5.66 11 6 C9.6875 8 9.6875 8 8 10 C7.01 10 6.02 10 5 10 C5 9.34 5 8.68 5 8 C4.4225 7.773125 3.845 7.54625 3.25 7.3125 C0.4336339 5.66961977 -1.08077114 3.60466773 -3 1 C-2.01 0.67 -1.02 0.34 0 0 Z " fill="#D85A41" transform="translate(47,143)"/>
<path d="M0 0 C1.1725131 0.95117134 2.33787015 1.91117009 3.5 2.875 C4.47453125 3.67550781 4.47453125 3.67550781 5.46875 4.4921875 C5.9740625 4.98976563 6.479375 5.48734375 7 6 C7 6.66 7 7.32 7 8 C7.598125 8.2475 8.19625 8.495 8.8125 8.75 C11.28647521 10.16370012 12.43370255 11.65055383 14 14 C11 14 11 14 8.625 11.75 C7.75875 10.8425 6.8925 9.935 6 9 C5.0925 8.34 4.185 7.68 3.25 7 C0.64851404 4.68756804 0.28388934 3.40667209 0 0 Z " fill="#DC5D4A" transform="translate(110,31)"/>
<path d="M0 0 C0.99 0 1.98 0 3 0 C3.36190476 5.42857143 3.36190476 5.42857143 1.8125 7.875 C-0.56036279 9.34781139 -2.25913944 9.22223194 -5 9 C-3.49901406 5.88256767 -1.97568178 2.84498177 0 0 Z " fill="#EA4F24" transform="translate(90,36)"/>
<path d="M0 0 C0.33 0.66 0.66 1.32 1 2 C1.99 2.33 2.98 2.66 4 3 C1.36 5.64 -1.28 8.28 -4 11 C-5 8 -5 8 -5 5 C-2.5 2.3125 -2.5 2.3125 0 0 Z " fill="#FBE7E2" transform="translate(85,148)"/>
<path d="M0 0 C2.97 0.495 2.97 0.495 6 1 C6 4 6 4 4.57421875 5.71875 C3.64029297 6.60046875 3.64029297 6.60046875 2.6875 7.5 C2.07261719 8.0878125 1.45773438 8.675625 0.82421875 9.28125 C0.22222656 9.8484375 -0.37976563 10.415625 -1 11 C-2.00339172 11.99659674 -3.00460469 12.99541642 -4 14 C-3.34 11.36 -2.68 8.72 -2 6 C-0.68 6 0.64 6 2 6 C1.34 4.02 0.68 2.04 0 0 Z " fill="#F9E4D8" transform="translate(13,96)"/>
<path d="M0 0 C5.99436194 1.81647332 10.57187425 5.85781137 14 11 C13.67 11.99 13.34 12.98 13 14 C10.83031809 11.85714108 8.66416525 9.71091768 6.5 7.5625 C5.87996094 6.95083984 5.25992188 6.33917969 4.62109375 5.70898438 C4.03457031 5.12568359 3.44804688 4.54238281 2.84375 3.94140625 C2.02680664 3.13231812 2.02680664 3.13231812 1.19335938 2.30688477 C0 1 0 1 0 0 Z " fill="#FEE7DD" transform="translate(107,87)"/>
<path d="M0 0 C0.33 1.98 0.66 3.96 1 6 C0.01 5.34 -0.98 4.68 -2 4 C-5.37494032 4.32660713 -7.42357133 5.88364787 -10 8 C-10.3125 5.6875 -10.3125 5.6875 -10 3 C-6.71110421 0.27491491 -4.21712557 -0.36146791 0 0 Z " fill="#F8D5CB" transform="translate(103,19)"/>
<path d="M0 0 C9.77623457 7.54166667 9.77623457 7.54166667 12 13 C9.69 12.67 7.38 12.34 5 12 C4.67 9.69 4.34 7.38 4 5 C3.01 4.67 2.02 4.34 1 4 C0.3125 1.9375 0.3125 1.9375 0 0 Z " fill="#DE5F47" transform="translate(103,144)"/>
<path d="M0 0 C4.13621084 3.3810038 7.81316569 6.66590534 11 11 C9.35 12.32 7.7 13.64 6 15 C6.66 13.02 7.32 11.04 8 9 C7.34 9 6.68 9 6 9 C6 8.34 6 7.68 6 7 C3.36095629 5.58622659 0.92879371 4.62759865 -2 4 C-2 3.34 -2 2.68 -2 2 C-1.34 2 -0.68 2 0 2 C0 1.34 0 0.68 0 0 Z " fill="#D2593B" transform="translate(148,129)"/>
<path d="M0 0 C4.52615993 3.67832017 8.39424999 7.41086363 12 12 C11.01 12.495 11.01 12.495 10 13 C9.34 12.67 8.68 12.34 8 12 C8 11.01 8 10.02 8 9 C7.443125 8.938125 6.88625 8.87625 6.3125 8.8125 C3.05012827 7.66626128 1.31332126 5.50609803 -1 3 C-0.67 2.01 -0.34 1.02 0 0 Z " fill="#DA5A41" transform="translate(136,117)"/>
<path d="M0 0 C1.32 0 2.64 0 4 0 C4 2.64 4 5.28 4 8 C2.02 8 0.04 8 -2 8 C-2 7.01 -2 6.02 -2 5 C-1.34 5 -0.68 5 0 5 C0 3.35 0 1.7 0 0 Z " fill="#FD4027" transform="translate(98,94)"/>
<path d="M0 0 C1.5 1.1875 1.5 1.1875 3 3 C3.1875 5.6875 3.1875 5.6875 3 8 C3.66 8.33 4.32 8.66 5 9 C2 9 2 9 0.17578125 7.46875 C-0.43910156 6.8190625 -1.05398437 6.169375 -1.6875 5.5 C-2.31011719 4.8503125 -2.93273437 4.200625 -3.57421875 3.53125 C-4.04472656 3.0259375 -4.51523438 2.520625 -5 2 C-4.01 1.67 -3.02 1.34 -2 1 C-1.34 0.67 -0.68 0.34 0 0 Z " fill="#E35138" transform="translate(156,95)"/>
<path d="M0 0 C7.48291572 6.15034169 7.48291572 6.15034169 10 10 C8.68 10 7.36 10 6 10 C6 9.34 6 8.68 6 8 C5.21625 7.938125 4.4325 7.87625 3.625 7.8125 C1 7 1 7 -0.375 4.5625 C-1 2 -1 2 0 0 Z " fill="#FCE6D9" transform="translate(138,84)"/>
<path d="M0 0 C0.99 0.33 1.98 0.66 3 1 C3 1.66 3 2.32 3 3 C5.31 3 7.62 3 10 3 C8.35 4.98 6.7 6.96 5 9 C4.38125 8.195625 3.7625 7.39125 3.125 6.5625 C1.25835959 3.96125481 1.25835959 3.96125481 -1 3 C-0.67 2.01 -0.34 1.02 0 0 Z " fill="#F24C1F" transform="translate(58,77)"/>
<path d="M0 0 C0.78375 0.04125 1.5675 0.0825 2.375 0.125 C-1.30332017 4.65115993 -5.03586363 8.51924999 -9.625 12.125 C-9.625 11.135 -9.625 10.145 -9.625 9.125 C-8.635 8.465 -7.645 7.805 -6.625 7.125 C-5.92288106 5.47295544 -5.25528587 3.80576231 -4.625 2.125 C-2.625 0.125 -2.625 0.125 0 0 Z " fill="#E4533F" transform="translate(85.625,59.875)"/>
<path d="M0 0 C6.4 -0.49230769 6.4 -0.49230769 9.4375 2 C10.2109375 2.99 10.2109375 2.99 11 4 C10.01 4.495 10.01 4.495 9 5 C8.34 4.67 7.68 4.34 7 4 C7 4.66 7 5.32 7 6 C5.68 5.67 4.36 5.34 3 5 C3 4.01 3 3.02 3 2 C2.01 2 1.02 2 0 2 C0 1.34 0 0.68 0 0 Z " fill="#F3482D" transform="translate(48,144)"/>
<path d="M0 0 C-0.33 1.32 -0.66 2.64 -1 4 C0.2065625 4.680625 0.2065625 4.680625 1.4375 5.375 C4 7 4 7 5 9 C4.34 9.66 3.68 10.32 3 11 C1.68113228 9.90344712 0.37009943 8.79746577 -0.9375 7.6875 C-1.66839844 7.07261719 -2.39929688 6.45773438 -3.15234375 5.82421875 C-5 4 -5 4 -6 1 C-3.92446352 0.4465236 -2.15634036 0 0 0 Z " fill="#FCE5DA" transform="translate(128,101)"/>
<path d="M0 0 C0.33 0.66 0.66 1.32 1 2 C-0.28062485 3.7074998 -1.61767557 5.37373596 -3 7 C-3.66 7 -4.32 7 -5 7 C-5 7.66 -5 8.32 -5 9 C-5.66 9 -6.32 9 -7 9 C-7.33 11.31 -7.66 13.62 -8 16 C-8.99 15.34 -9.98 14.68 -11 14 C-10.52590352 9.68269587 -7.96603297 7.66352539 -4.9375 4.75 C-4.01839844 3.85796875 -3.09929688 2.9659375 -2.15234375 2.046875 C-1.44207031 1.37140625 -0.73179688 0.6959375 0 0 Z " fill="#D26148" transform="translate(22,96)"/>
<path d="M0 0 C1.99954746 -0.04254356 4.00041636 -0.04080783 6 0 C7 1 7 1 7.0625 4.0625 C7.041875 5.031875 7.02125 6.00125 7 7 C5.68 6.67 4.36 6.34 3 6 C3 5.34 3 4.68 3 4 C2.01 3.67 1.02 3.34 0 3 C0 2.01 0 1.02 0 0 Z " fill="#F3FCFA" transform="translate(113,88)"/>
<path d="M0 0 C0.66 0 1.32 0 2 0 C2 3.96 2 7.92 2 12 C0.35 11.01 -1.3 10.02 -3 9 C-3 7.68 -3 6.36 -3 5 C-2.01 5.33 -1.02 5.66 0 6 C-0.2784375 4.7934375 -0.2784375 4.7934375 -0.5625 3.5625 C-0.706875 2.716875 -0.85125 1.87125 -1 1 C-0.67 0.67 -0.34 0.34 0 0 Z " fill="#FBE9E3" transform="translate(110,20)"/>
<path d="M0 0 C1.99954746 -0.04254356 4.00041636 -0.04080783 6 0 C7 1 7 1 7.0625 4.0625 C7.041875 5.031875 7.02125 6.00125 7 7 C6.01 7 5.02 7 4 7 C4 6.34 4 5.68 4 5 C3.34 5 2.68 5 2 5 C2 4.34 2 3.68 2 3 C1.34 3 0.68 3 0 3 C0 2.01 0 1.02 0 0 Z " fill="#EEFDF8" transform="translate(145,120)"/>
<path d="M0 0 C0.66 0 1.32 0 2 0 C2.71484375 1.765625 2.71484375 1.765625 3 4 C1.56640625 5.921875 1.56640625 5.921875 -0.4375 7.75 C-1.09621094 8.36359375 -1.75492187 8.9771875 -2.43359375 9.609375 C-3.20896484 10.29773438 -3.20896484 10.29773438 -4 11 C-4.66 10.67 -5.32 10.34 -6 10 C-6 9.34 -6 8.68 -6 8 C-5.01 8 -4.02 8 -3 8 C-3 7.34 -3 6.68 -3 6 C-3.66 6 -4.32 6 -5 6 C-5 5.34 -5 4.68 -5 4 C-3.35 3.34 -1.7 2.68 0 2 C0 1.34 0 0.68 0 0 Z " fill="#E95029" transform="translate(89,112)"/>
<path d="M0 0 C3.78611227 0.54087318 5.55400767 2.11722332 8 5 C8 5.66 8 6.32 8 7 C9.98 7 11.96 7 14 7 C13.01 8.485 13.01 8.485 12 10 C8.15114044 9.44520943 6.40739482 7.75581685 3.75 5 C3.04359375 4.278125 2.3371875 3.55625 1.609375 2.8125 C0 1 0 1 0 0 Z " fill="#FAD6CB" transform="translate(178,97)"/>
<path d="M0 0 C0.99 0 1.98 0 3 0 C3.33 0.99 3.66 1.98 4 3 C6.01508358 3.73323796 6.01508358 3.73323796 8 4 C8 4.66 8 5.32 8 6 C6.35 6.33 4.7 6.66 3 7 C3 6.01 3 5.02 3 4 C2.34 4 1.68 4 1 4 C0.34 5.32 -0.32 6.64 -1 8 C-1.625 5.6875 -1.625 5.6875 -2 3 C-1.34 2.01 -0.68 1.02 0 0 Z " fill="#FC4529" transform="translate(159,90)"/>
<path d="M0 0 C0.33 0.66 0.66 1.32 1 2 C2.485 2.4640625 2.485 2.4640625 4 2.9375 C4.99 3.288125 5.98 3.63875 7 4 C7.33 4.99 7.66 5.98 8 7 C7.34 7.66 6.68 8.32 6 9 C6 8.34 6 7.68 6 7 C5.34 6.67 4.68 6.34 4 6 C4.33 5.34 4.66 4.68 5 4 C2.03 4.66 -0.94 5.32 -4 6 C-4 4 -4 4 -2 1.875 C-1.34 1.25625 -0.68 0.6375 0 0 Z " fill="#EB4F27" transform="translate(102,26)"/>
<path d="M0 0 C1.32 0.66 2.64 1.32 4 2 C3.0479279 3.00596297 2.08812654 4.00461563 1.125 5 C0.59132813 5.556875 0.05765625 6.11375 -0.4921875 6.6875 C-2 8 -2 8 -4 8 C-4.33 8.66 -4.66 9.32 -5 10 C-5.33 8.35 -5.66 6.7 -6 5 C-3 3 -3 3 0 3 C0 2.01 0 1.02 0 0 Z " fill="#F9D4C5" transform="translate(75,159)"/>
<path d="M0 0 C2 0 2 0 3.62109375 1.609375 C4.22050781 2.31578125 4.81992188 3.0221875 5.4375 3.75 C6.33275391 4.79414062 6.33275391 4.79414062 7.24609375 5.859375 C8.89081098 7.86673589 10.46126108 9.91070312 12 12 C9.5625 11.1875 9.5625 11.1875 7 10 C6.67 9.01 6.34 8.02 6 7 C2.99152582 5.77479736 2.99152582 5.77479736 0 5 C0 3.35 0 1.7 0 0 Z " fill="#DB664B" transform="translate(104,85)"/>
<path d="M0 0 C5.02470674 2.37277818 6.56030983 5.21097855 9 10 C8.34 10 7.68 10 7 10 C7 9.34 7 8.68 7 8 C6.21625 7.9175 5.4325 7.835 4.625 7.75 C2 7 2 7 0.6875 5.125 C0 3 0 3 0 0 Z " fill="#FADAC7" transform="translate(11,110)"/>
<path d="M0 0 C4.52615993 3.67832017 8.39424999 7.41086363 12 12 C9.125 11.8125 9.125 11.8125 6 11 C4.875 8.6875 4.875 8.6875 4 6 C2.68612831 4.64748503 1.35573748 3.31054623 0 2 C0 1.34 0 0.68 0 0 Z " fill="#D95D45" transform="translate(124,105)"/>
<path d="M0 0 C1.32 0 2.64 0 4 0 C4 0.66 4 1.32 4 2 C4.66 2 5.32 2 6 2 C6 2.66 6 3.32 6 4 C6.66 4 7.32 4 8 4 C8 5.65 8 7.3 8 9 C7.01 8.67 6.02 8.34 5 8 C4.33333333 6.66666667 3.66666667 5.33333333 3 4 C0.96682993 2.26574227 0.96682993 2.26574227 -1 1 C-0.67 0.67 -0.34 0.34 0 0 Z " fill="#FDFAEE" transform="translate(168,80)"/>
<path d="M0 0 C0.99 0.33 1.98 0.66 3 1 C-0.16952847 4.26008643 -3.39937989 7.22237877 -7 10 C-8 8 -8 8 -7.4375 6 C-5.42697892 3.20275328 -3.25581923 2.84934415 0 2 C0 1.34 0 0.68 0 0 Z " fill="#FCE9DD" transform="translate(95,80)"/>
<path d="M0 0 C2.475 0.99 2.475 0.99 5 2 C5 2.33 5 2.66 5 3 C3.4840625 3.2784375 3.4840625 3.2784375 1.9375 3.5625 C-2.92651732 4.90258641 -5.75505217 8.31121432 -9 12 C-9.66 11.67 -10.32 11.34 -11 11 C-7.37 7.37 -3.74 3.74 0 0 Z " fill="#CB5E43" transform="translate(98,141)"/>
<path d="M0 0 C2.475 0.495 2.475 0.495 5 1 C5 1.66 5 2.32 5 3 C5.66 3 6.32 3 7 3 C7 3.66 7 4.32 7 5 C7.66 5 8.32 5 9 5 C9 5.66 9 6.32 9 7 C9.66 7 10.32 7 11 7 C10.67 7.99 10.34 8.98 10 10 C2.51708428 3.84965831 2.51708428 3.84965831 0 0 Z " fill="#FDDFD5" transform="translate(138,118)"/>
<path d="M0 0 C7.48291572 6.15034169 7.48291572 6.15034169 10 10 C6.91082652 9.6567585 5.22894021 9.17806461 2.75 7.25 C0.82193539 4.77105979 0.3432415 3.08917348 0 0 Z " fill="#FDDFD4" transform="translate(148,94)"/>
<path d="M0 0 C0.99 0.33 1.98 0.66 3 1 C1.71034824 2.37562854 0.37310707 3.70766393 -1 5 C-1.66 5 -2.32 5 -3 5 C-3.33 5.99 -3.66 6.98 -4 8 C-6.0625 9.1875 -6.0625 9.1875 -8 10 C-7.75 7.625 -7.75 7.625 -7 5 C-5.125 3.875 -5.125 3.875 -3 3 C-1.29078411 1.4587688 -1.29078411 1.4587688 0 0 Z " fill="#FBD9C8" transform="translate(36,80)"/>
<path d="M0 0 C0.99 0.66 1.98 1.32 3 2 C3.1875 5.625 3.1875 5.625 3 9 C1.85073734 8.04578192 0.70569459 7.08647955 -0.4375 6.125 C-1.07558594 5.59132813 -1.71367187 5.05765625 -2.37109375 4.5078125 C-4 3 -4 3 -5 1 C-2.525 1.495 -2.525 1.495 0 2 C0 1.34 0 0.68 0 0 Z " fill="#F6E0D9" transform="translate(141,55)"/>
<path d="M0 0 C1.31896465 0.92838287 2.62998689 1.86805732 3.9375 2.8125 C4.66839844 3.33457031 5.39929688 3.85664062 6.15234375 4.39453125 C8 6 8 6 9 9 C6.03 8.505 6.03 8.505 3 8 C2.67 7.01 2.34 6.02 2 5 C1.34 4.67 0.68 4.34 0 4 C0 2.68 0 1.36 0 0 Z " fill="#FBDECE" transform="translate(114,124)"/>
<path d="M0 0 C0 1.98 0 3.96 0 6 C-0.99 6.495 -0.99 6.495 -2 7 C-2 6.34 -2 5.68 -2 5 C-2.598125 4.71125 -3.19625 4.4225 -3.8125 4.125 C-6 3 -6 3 -9 1 C-5.8035914 -0.06546953 -3.34252724 -0.07427838 0 0 Z " fill="#EEFBF5" transform="translate(136,104)"/>
<path d="M0 0 C0.66 0.99 1.32 1.98 2 3 C-1.42388092 6.82669043 -4.00724943 8.72278474 -9 10 C-8.06409496 8.8944811 -7.12620142 7.79064547 -6.1875 6.6875 C-5.66542969 6.07261719 -5.14335938 5.45773438 -4.60546875 4.82421875 C-3.12827531 3.14575321 -1.59960869 1.56117966 0 0 Z " fill="#F9DFD1" transform="translate(83,65)"/>
<path d="M0 0 C1.32 0.66 2.64 1.32 4 2 C4 3.98 4 5.96 4 8 C1.5 6.75 1.5 6.75 -1 5 C-1 1 -1 1 0 0 Z " fill="#FBE5D6" transform="translate(116,152)"/>
<path d="M0 0 C0.33 0.99 0.66 1.98 1 3 C1.66 3 2.32 3 3 3 C5.01782732 5.90567134 6.35494404 8.51669784 7 12 C3.66666667 8.66666667 0.33333333 5.33333333 -3 2 C-2.01 1.34 -1.02 0.68 0 0 Z " fill="#E05B44" transform="translate(119,123)"/>
<path d="M0 0 C7.48291572 6.15034169 7.48291572 6.15034169 10 10 C9.01 10.495 9.01 10.495 8 11 C8 10.34 8 9.68 8 9 C7.236875 8.95875 6.47375 8.9175 5.6875 8.875 C3 8 3 8 1.1875 5.0625 C0 2 0 2 0 0 Z " fill="#FDE4D4" transform="translate(104,114)"/>
<path d="M0 0 C0.66 0 1.32 0 2 0 C2 0.99 2 1.98 2 3 C3.65 3 5.3 3 7 3 C6.01 4.485 6.01 4.485 5 6 C3.0546875 6.29296875 3.0546875 6.29296875 0.875 6.1875 C-0.40375 6.125625 -1.6825 6.06375 -3 6 C-2 4 -1 2 0 0 Z " fill="#F4FCF6" transform="translate(115,66)"/>
<path d="M0 0 C0.99 0.33 1.98 0.66 3 1 C0.33333333 3.66666667 -2.33333333 6.33333333 -5 9 C-5.99 8.67 -6.98 8.34 -8 8 C-5.33333333 5.33333333 -2.66666667 2.66666667 0 0 Z " fill="#FCEADB" transform="translate(76,40)"/>
<path d="M0 0 C2.171875 0.37890625 2.171875 0.37890625 4 1 C3.0479279 2.00596297 2.08812654 3.00461563 1.125 4 C0.59132813 4.556875 0.05765625 5.11375 -0.4921875 5.6875 C-2 7 -2 7 -4 7 C-4.33 6.01 -4.66 5.02 -5 4 C-2.75 1.9375 -2.75 1.9375 0 0 Z " fill="#DB5B3B" transform="translate(63,140)"/>
<path d="M0 0 C0.99 0.33 1.98 0.66 3 1 C1.71451591 2.33929505 0.42141845 3.67128643 -0.875 5 C-1.59429687 5.7425 -2.31359375 6.485 -3.0546875 7.25 C-5 9 -5 9 -7 9 C-7.33 9.99 -7.66 10.98 -8 12 C-8.33 11.01 -8.66 10.02 -9 9 C-4.375 4.125 -4.375 4.125 -1 3 C-0.67 2.01 -0.34 1.02 0 0 Z " fill="#FBDBC9" transform="translate(63,112)"/>
<path d="M0 0 C0.33 0 0.66 0 1 0 C1.125 2.375 1.125 2.375 1 5 C-1 7 -1 7 -4.625 7.125 C-5.73875 7.08375 -6.8525 7.0425 -8 7 C-8 6.34 -8 5.68 -8 5 C-8.66 5 -9.32 5 -10 5 C-9.67 4.34 -9.34 3.68 -9 3 C-8.34 3.33 -7.68 3.66 -7 4 C-7 4.66 -7 5.32 -7 6 C-3.73539027 4.19587357 -2.11070205 3.16605307 0 0 Z " fill="#FAE7DA" transform="translate(59,147)"/>
<path d="M0 0 C0.66 0.99 1.32 1.98 2 3 C1.01 3.33 0.02 3.66 -1 4 C-1.33 5.65 -1.66 7.3 -2 9 C-4.31 9 -6.62 9 -9 9 C-6 6 -3 3 0 0 Z " fill="#F9E0D6" transform="translate(153,145)"/>
<path d="M0 0 C0.928125 0.66 1.85625 1.32 2.8125 2 C5.79636556 4.26574554 5.79636556 4.26574554 9 4 C9 4.66 9 5.32 9 6 C6.69 6.66 4.38 7.32 2 8 C0 2.25 0 2.25 0 0 Z " fill="#FBE0D3" transform="translate(170,116)"/>
<path d="M0 0 C5.41342681 1.14514798 7.9342948 2.34012809 11 7 C6.66161736 7 6.25501626 6.79141434 3.25 4.0625 C2.63640625 3.51722656 2.0228125 2.97195312 1.390625 2.41015625 C0 1 0 1 0 0 Z " fill="#DE5944" transform="translate(168,113)"/>
<path d="M0 0 C0 3.39593478 -0.52165948 4.06619881 -2.5 6.6875 C-2.9640625 7.31011719 -3.428125 7.93273437 -3.90625 8.57421875 C-4.2671875 9.04472656 -4.628125 9.51523438 -5 10 C-6.32 9.67 -7.64 9.34 -9 9 C-6.03 6.03 -3.06 3.06 0 0 Z " fill="#FCE6D3" transform="translate(59,89)"/>
<path d="M0 0 C1 2 1 2 0.5 3.8125 C-1.71174733 7.03796486 -4.75550422 8.88327013 -8 11 C-8.66 10.67 -9.32 10.34 -10 10 C-6.7 6.7 -3.4 3.4 0 0 Z " fill="#FCD8CF" transform="translate(94,54)"/>
<path d="M0 0 C2.31 1.98 4.62 3.96 7 6 C4 6 4 6 2 5 C1.67 6.32 1.34 7.64 1 9 C0.01 9 -0.98 9 -2 9 C-2 7.68 -2 6.36 -2 5 C-1.34 4.67 -0.68 4.34 0 4 C0 2.68 0 1.36 0 0 Z " fill="#E55032" transform="translate(130,51)"/>
<path d="M0 0 C4.17882671 2.56428003 7.12505529 5.01930733 10 9 C9.01 9 8.02 9 7 9 C6.67 8.01 6.34 7.02 6 6 C4.35 5.67 2.7 5.34 1 5 C0.67 3.35 0.34 1.7 0 0 Z " fill="#FDD8C7" transform="translate(123,133)"/>
<path d="M0 0 C2 3 2 3 1.625 5.1875 C1.41875 5.785625 1.2125 6.38375 1 7 C-1.31 7 -3.62 7 -6 7 C-4.02 4.69 -2.04 2.38 0 0 Z " fill="#F7E3D9" transform="translate(94,113)"/>
<path d="M0 0 C0 1.65 0 3.3 0 5 C-2.31 5.33 -4.62 5.66 -7 6 C-6.67 4.35 -6.34 2.7 -6 1 C-3.92446352 0.4465236 -2.15634036 0 0 0 Z " fill="#EEF9F2" transform="translate(56,98)"/>
<path d="M0 0 C1.65 0.33 3.3 0.66 5 1 C4.67 1.66 4.34 2.32 4 3 C3.01 2.67 2.02 2.34 1 2 C0.67 3.32 0.34 4.64 0 6 C-1.65 6 -3.3 6 -5 6 C-5 4 -5 4 -3 2 C-2.01 2 -1.02 2 0 2 C0 1.34 0 0.68 0 0 Z " fill="#F8F8F2" transform="translate(107,122)"/>
<path d="M0 0 C0 1.65 0 3.3 0 5 C-3.28696233 5.79953138 -4.71023192 6.09658936 -8 5 C-7.01 4.67 -6.02 4.34 -5 4 C-5 3.34 -5 2.68 -5 2 C-2 0 -2 0 0 0 Z " fill="#ECFBF0" transform="translate(40,114)"/>
<path d="M0 0 C1.32 0.33 2.64 0.66 4 1 C4 1.66 4 2.32 4 3 C4.66 3 5.32 3 6 3 C5.67 3.99 5.34 4.98 5 6 C3.35 6 1.7 6 0 6 C0 4.02 0 2.04 0 0 Z " fill="#F1F7F3" transform="translate(121,96)"/>
<path d="M0 0 C0.66 1.32 1.32 2.64 2 4 C1.01 4.99 0.02 5.98 -1 7 C-1.99 6.67 -2.98 6.34 -4 6 C-3.6875 4.125 -3.6875 4.125 -3 2 C-2.01 1.34 -1.02 0.68 0 0 Z " fill="#F2421A" transform="translate(78,105)"/>
<path d="M0 0 C0.66 0.33 1.32 0.66 2 1 C1.67 2.32 1.34 3.64 1 5 C1.66 5 2.32 5 3 5 C3.33 6.32 3.66 7.64 4 9 C3.01 9 2.02 9 1 9 C-1 7 -1 7 -1.1875 3.9375 C-1 1 -1 1 0 0 Z " fill="#FD432B" transform="translate(111,103)"/>
<path d="M0 0 C0.66 0.66 1.32 1.32 2 2 C-0.64 4.64 -3.28 7.28 -6 10 C-6.33 9.01 -6.66 8.02 -7 7 C-5.37660195 5.29115995 -3.70680947 3.62553283 -2 2 C-1.34 2 -0.68 2 0 2 C0 1.34 0 0.68 0 0 Z " fill="#FCE5D5" transform="translate(78,97)"/>
<path d="M0 0 C4.13621084 3.3810038 7.81316569 6.66590534 11 11 C9.35 11 7.7 11 6 11 C6 10.01 6 9.02 6 8 C5.195625 7.360625 4.39125 6.72125 3.5625 6.0625 C0.82061427 3.85561636 0.59417286 3.27136552 0 0 Z " fill="#FCD5C5" transform="translate(127,73)"/>
<path d="M0 0 C2.8125 0.1875 2.8125 0.1875 6 1 C8.21333923 3.82391557 9.34885612 6.48382303 10 10 C6.66666667 6.66666667 3.33333333 3.33333333 0 0 Z " fill="#DF604A" transform="translate(123,69)"/>
<path d="M0 0 C0.99 0.33 1.98 0.66 3 1 C3 1.66 3 2.32 3 3 C-2.47619048 8 -2.47619048 8 -5 8 C-4.34 6.35 -3.68 4.7 -3 3 C-2.34 3 -1.68 3 -1 3 C-0.67 2.01 -0.34 1.02 0 0 Z " fill="#F1FDF6" transform="translate(51,61)"/>
<path d="M0 0 C2.5 1.75 2.5 1.75 5 4 C5 5.32 5 6.64 5 8 C4.01 8.33 3.02 8.66 2 9 C0 2.25 0 2.25 0 0 Z " fill="#F1E8DB" transform="translate(135,144)"/>
<path d="M0 0 C1.32 0 2.64 0 4 0 C4 0.66 4 1.32 4 2 C4.99 2.33 5.98 2.66 7 3 C6.67 3.66 6.34 4.32 6 5 C3.525 4.01 3.525 4.01 1 3 C-0.65 4.32 -2.3 5.64 -4 7 C-4 6.01 -4 5.02 -4 4 C-3.34 4 -2.68 4 -2 4 C-1.34 2.68 -0.68 1.36 0 0 Z " fill="#FDDDD1" transform="translate(97,139)"/>
<path d="M0 0 C1.65 0.33 3.3 0.66 5 1 C4.67 1.66 4.34 2.32 4 3 C3.34 2.67 2.68 2.34 2 2 C1.34 3.32 0.68 4.64 0 6 C-0.99 5.67 -1.98 5.34 -3 5 C-3 4.34 -3 3.68 -3 3 C-2.34 3 -1.68 3 -1 3 C-0.67 2.01 -0.34 1.02 0 0 Z " fill="#EE4E2A" transform="translate(139,125)"/>
<path d="M0 0 C0.66 0.66 1.32 1.32 2 2 C1.278125 2.556875 0.55625 3.11375 -0.1875 3.6875 C-2.97457299 5.97909334 -5.48641528 8.41459857 -8 11 C-8 10.01 -8 9.02 -8 8 C-7.34 8 -6.68 8 -6 8 C-5.731875 7.360625 -5.46375 6.72125 -5.1875 6.0625 C-4 4 -4 4 -1 3 C-0.67 2.01 -0.34 1.02 0 0 Z " fill="#FBD5C7" transform="translate(52,123)"/>
<path d="M0 0 C0 3.70411834 -0.75301769 5.078923 -3 8 C-6.1875 9.3125 -6.1875 9.3125 -9 10 C-8.06409496 8.8944811 -7.12620142 7.79064547 -6.1875 6.6875 C-5.66542969 6.07261719 -5.14335938 5.45773438 -4.60546875 4.82421875 C-3.12827531 3.14575321 -1.59960869 1.56117966 0 0 Z " fill="#D76653" transform="translate(86,92)"/>
<path d="M0 0 C0.66 0 1.32 0 2 0 C2.33 1.98 2.66 3.96 3 6 C2.01 6.33 1.02 6.66 0 7 C-0.33 7.99 -0.66 8.98 -1 10 C-2.21994269 6.34017193 -1.49026663 5.41884698 0 2 C0 1.34 0 0.68 0 0 Z " fill="#F2FEF5" transform="translate(128,86)"/>
<path d="M0 0 C-1.37154504 2.95409701 -2.98863724 5.44008376 -5 8 C-5.99 7.67 -6.98 7.34 -8 7 C-8 6.34 -8 5.68 -8 5 C-2.52380952 0 -2.52380952 0 0 0 Z " fill="#EFFEF7" transform="translate(69,46)"/>
<path d="M0 0 C3.79588866 0.54226981 5.47211993 2.20127563 8 5 C7.67 5.99 7.34 6.98 7 8 C1.125 3.375 1.125 3.375 0 0 Z " fill="#F9E2D6" transform="translate(112,32)"/>
<path d="M0 0 C1.134375 0.020625 2.26875 0.04125 3.4375 0.0625 C3.4375 1.0525 3.4375 2.0425 3.4375 3.0625 C1.125 3.75 1.125 3.75 -1.5625 4.0625 C-3.375 2.625 -3.375 2.625 -4.5625 1.0625 C-3.5625 0.0625 -3.5625 0.0625 0 0 Z " fill="#F3F9F7" transform="translate(100.5625,15.9375)"/>
<path d="M0 0 C1.33332095 2.6666419 0.67102033 4.16680303 0 7 C-1.98 7 -3.96 7 -6 7 C-4.02 4.69 -2.04 2.38 0 0 Z " fill="#D15034" transform="translate(78,161)"/>
<path d="M0 0 C-0.33 1.32 -0.66 2.64 -1 4 C-2.32 4.33 -3.64 4.66 -5 5 C-5.33 3.35 -5.66 1.7 -6 0 C-3.50907189 -1.24546405 -2.58919267 -0.7767578 0 0 Z " fill="#EC4D20" transform="translate(109,154)"/>
<path d="M0 0 C3.35595828 0.59927826 5.37801226 1.84622436 8 4 C7.67 5.32 7.34 6.64 7 8 C5.83035398 6.8572081 4.66435444 5.71068285 3.5 4.5625 C2.8503125 3.92441406 2.200625 3.28632813 1.53125 2.62890625 C0 1 0 1 0 0 Z " fill="#D74E38" transform="translate(129,137)"/>
<path d="M0 0 C1.2065625 0.0309375 1.2065625 0.0309375 2.4375 0.0625 C-0.1875 4.9375 -0.1875 4.9375 -3.5625 6.0625 C-3.605221 4.39638095 -3.60313832 2.72867115 -3.5625 1.0625 C-2.5625 0.0625 -2.5625 0.0625 0 0 Z " fill="#F94330" transform="translate(70.5625,130.9375)"/>
<path d="M0 0 C0.33 0.99 0.66 1.98 1 3 C0.01 3.99 -0.98 4.98 -2 6 C-2.33 5.01 -2.66 4.02 -3 3 C-3.99 2.67 -4.98 2.34 -6 2 C-6 1.34 -6 0.68 -6 0 C-3 -1 -3 -1 0 0 Z " fill="#FC4122" transform="translate(128,112)"/>
<path d="M0 0 C7.48291572 6.15034169 7.48291572 6.15034169 10 10 C6.4628562 9.43867066 5.00738321 8.30442253 2.75 5.5625 C1.96882812 4.63630859 1.96882812 4.63630859 1.171875 3.69140625 C0 2 0 2 0 0 Z " fill="#D35634" transform="translate(173,93)"/>
<path d="M0 0 C0.33 0.66 0.66 1.32 1 2 C0.0625 4.125 0.0625 4.125 -1 6 C-1.66 6 -2.32 6 -3 6 C-3.33 6.99 -3.66 7.98 -4 9 C-4.66 9 -5.32 9 -6 9 C-4.68775452 5.06326356 -3.08089673 2.77280706 0 0 Z " fill="#F5F7EE" transform="translate(63,87)"/>
<path d="M0 0 C0.33 0.99 0.66 1.98 1 3 C-3.75 7 -3.75 7 -6 7 C-5.8125 4.625 -5.8125 4.625 -5 2 C-2.4375 0.6875 -2.4375 0.6875 0 0 Z " fill="#EAFCF2" transform="translate(79,73)"/>
<path d="M0 0 C0.99 0.33 1.98 0.66 3 1 C1.35 2.98 -0.3 4.96 -2 7 C-2.99 6.34 -3.98 5.68 -5 5 C-3.35 3.35 -1.7 1.7 0 0 Z " fill="#FDD3D2" transform="translate(100,48)"/>
<path d="M0 0 C2.4375 0.8125 2.4375 0.8125 5 2 C5.33 2.99 5.66 3.98 6 5 C8.01508358 5.73323796 8.01508358 5.73323796 10 6 C9.01 6.66 8.02 7.32 7 8 C5.83035398 6.8572081 4.66435444 5.71068285 3.5 4.5625 C2.8503125 3.92441406 2.200625 3.28632813 1.53125 2.62890625 C0 1 0 1 0 0 Z " fill="#D65745" transform="translate(137,145)"/>
<path d="M0 0 C0 3 0 3 -2 6 C-1.6878236 8.64632287 -1.6878236 8.64632287 -1 11 C-2.32 10.01 -3.64 9.02 -5 8 C-4.45773019 4.20411134 -2.79872437 2.52788007 0 0 Z " fill="#D15B3B" transform="translate(45,133)"/>
<path d="M0 0 C1.9375 0.625 1.9375 0.625 4 2 C4.75 5.125 4.75 5.125 5 8 C2.69 6.02 0.38 4.04 -2 2 C-1.34 1.34 -0.68 0.68 0 0 Z " fill="#E25E47" transform="translate(111,117)"/>
<path d="M0 0 C2.64 0 5.28 0 8 0 C7.34 1.98 6.68 3.96 6 6 C3.97945196 4.35830472 1.97956942 2.69088222 0 1 C0 0.67 0 0.34 0 0 Z " fill="#FAE8DC" transform="translate(132,112)"/>
<path d="M0 0 C0 0.66 0 1.32 0 2 C-0.66 2 -1.32 2 -2 2 C-2.33 2.99 -2.66 3.98 -3 5 C-4.32 4.34 -5.64 3.68 -7 3 C-7 2.34 -7 1.68 -7 1 C-4 0 -4 0 0 0 Z " fill="#EE4E1C" transform="translate(105,102)"/>
<path d="M0 0 C0.33 0.99 0.66 1.98 1 3 C0.67 3.66 0.34 4.32 0 5 C-0.99 5 -1.98 5 -3 5 C-3.66 6.32 -4.32 7.64 -5 9 C-5.66 8.34 -6.32 7.68 -7 7 C-4.69 4.69 -2.38 2.38 0 0 Z " fill="#FBE0CF" transform="translate(73,75)"/>
<path d="M0 0 C1.98 0 3.96 0 6 0 C6.33 1.65 6.66 3.3 7 5 C6.01 5 5.02 5 4 5 C1.8125 2.5 1.8125 2.5 0 0 Z " fill="#FAE8E5" transform="translate(161,80)"/>
<path d="M0 0 C0.99 0.33 1.98 0.66 3 1 C2.30058404 4.14737182 1.23921302 7.02588876 0 10 C-0.33 9.34 -0.66 8.68 -1 8 C-1.66 7.67 -2.32 7.34 -3 7 C-1.68 5.35 -0.36 3.7 1 2 C0.67 1.34 0.34 0.68 0 0 Z " fill="#F9DBCE" transform="translate(157,137)"/>
<path d="M0 0 C2.31 0.66 4.62 1.32 7 2 C7 3.65 7 5.3 7 7 C5.83040013 6.02433888 4.66438823 5.044375 3.5 4.0625 C2.8503125 3.51722656 2.200625 2.97195312 1.53125 2.41015625 C1.0259375 1.94480469 0.520625 1.47945313 0 1 C0 0.67 0 0.34 0 0 Z " fill="#DB5E46" transform="translate(160,105)"/>
<path d="M0 0 C0.33 0.66 0.66 1.32 1 2 C-0.125 4.5625 -0.125 4.5625 -2 7 C-4.6875 7.8125 -4.6875 7.8125 -7 8 C-6.02133662 6.85373678 -5.04205413 5.70800212 -4.0625 4.5625 C-3.51722656 3.92441406 -2.97195312 3.28632812 -2.41015625 2.62890625 C-1.63204305 1.73008851 -0.84063472 0.84063472 0 0 Z " fill="#FCE3D1" transform="translate(49,99)"/>
<path d="M0 0 C1.65 1.65 3.3 3.3 5 5 C4.01 6.32 3.02 7.64 2 9 C1 8 1 8 0.9375 5.4375 C0.958125 4.633125 0.97875 3.82875 1 3 C0.34 3 -0.32 3 -1 3 C-0.67 2.01 -0.34 1.02 0 0 Z " fill="#EE4C27" transform="translate(109,92)"/>
<path d="M0 0 C0.99 0.33 1.98 0.66 3 1 C0.69 3.31 -1.62 5.62 -4 8 C-4.33 7.34 -4.66 6.68 -5 6 C-3.86525052 2.59575156 -3.03188696 1.78346291 0 0 Z " fill="#FEE6D5" transform="translate(25,90)"/>
<path d="M0 0 C0.33 0.66 0.66 1.32 1 2 C-0.98 4.97 -0.98 4.97 -3 8 C-4.32 7.67 -5.64 7.34 -7 7 C-4.69 4.69 -2.38 2.38 0 0 Z " fill="#DD6650" transform="translate(30,88)"/>
<path d="M0 0 C0.66 0.33 1.32 0.66 2 1 C2 2.98 2 4.96 2 7 C1.01 7.33 0.02 7.66 -1 8 C-2.2077558 4.37673261 -1.54311128 3.35853631 0 0 Z " fill="#EEFCF2" transform="translate(70,80)"/>
<path d="M0 0 C0.66 0.33 1.32 0.66 2 1 C1.67 2.65 1.34 4.3 1 6 C-0.65 6 -2.3 6 -4 6 C-1.125 1.125 -1.125 1.125 0 0 Z " fill="#EDFBFA" transform="translate(86,66)"/>
<path d="M0 0 C2.64 0 5.28 0 8 0 C7.67 0.99 7.34 1.98 7 3 C5.68 3 4.36 3 3 3 C2.01 3.66 1.02 4.32 0 5 C0 3.35 0 1.7 0 0 Z " fill="#DB5637" transform="translate(96,47)"/>
<path d="M0 0 C1.32 0 2.64 0 4 0 C3.67 1.65 3.34 3.3 3 5 C1.68 5 0.36 5 -1 5 C-0.67 3.35 -0.34 1.7 0 0 Z " fill="#FB3D2F" transform="translate(85,36)"/>
<path d="M0 0 C1.32 1.32 2.64 2.64 4 4 C1.35541621 5.32229189 -0.67761301 5.09677194 -3.625 5.0625 C-4.62789063 5.05347656 -5.63078125 5.04445312 -6.6640625 5.03515625 C-7.43492188 5.02355469 -8.20578125 5.01195312 -9 5 C-9 4.67 -9 4.34 -9 4 C-4.545 3.505 -4.545 3.505 0 3 C0 2.01 0 1.02 0 0 Z " fill="#D2816D" transform="translate(123,164)"/>
<path d="M0 0 C3.53600465 1.91135386 5.78972846 3.62642766 8 7 C6 7 4 7 2 7 C0.5393715 4.35261084 0 3.10551666 0 0 Z " fill="#FCEDE4" transform="translate(20,120)"/>
<path d="M0 0 C0.99 0.33 1.98 0.66 3 1 C1 4 1 4 -2.125 4.6875 C-3.07375 4.790625 -4.0225 4.89375 -5 5 C-5.33 4.34 -5.66 3.68 -6 3 C-4.02 2.67 -2.04 2.34 0 2 C0 1.34 0 0.68 0 0 Z " fill="#F6F9F1" transform="translate(179,120)"/>
<path d="M0 0 C0.99 0.33 1.98 0.66 3 1 C0.69 3.31 -1.62 5.62 -4 8 C-4.33 7.01 -4.66 6.02 -5 5 C-4.34 5 -3.68 5 -3 5 C-3 4.01 -3 3.02 -3 2 C-2.01 2 -1.02 2 0 2 C0 1.34 0 0.68 0 0 Z " fill="#FEE3D5" transform="translate(85,90)"/>
<path d="M0 0 C2.475 0.495 2.475 0.495 5 1 C5 2.32 5 3.64 5 5 C3.68 4.67 2.36 4.34 1 4 C0.67 2.68 0.34 1.36 0 0 Z " fill="#EB4C21" transform="translate(46,88)"/>
<path d="M0 0 C2.31 1.98 4.62 3.96 7 6 C5.68 6.33 4.36 6.66 3 7 C1.25 5.8125 1.25 5.8125 0 4 C0 2.68 0 1.36 0 0 Z " fill="#D85F44" transform="translate(156,76)"/>
<path d="M0 0 C1.1725131 0.95117134 2.33787015 1.91117009 3.5 2.875 C4.47453125 3.67550781 4.47453125 3.67550781 5.46875 4.4921875 C5.9740625 4.98976563 6.479375 5.48734375 7 6 C7 6.66 7 7.32 7 8 C5.1875 7.8125 5.1875 7.8125 3 7 C0 2.82142857 0 2.82142857 0 0 Z " fill="#FDE2D9" transform="translate(103,50)"/>
<path d="M0 0 C0.33 0.66 0.66 1.32 1 2 C1.66 2.33 2.32 2.66 3 3 C2.01 3.33 1.02 3.66 0 4 C-0.33 4.99 -0.66 5.98 -1 7 C-1.33 6.01 -1.66 5.02 -2 4 C-2.66 3.67 -3.32 3.34 -4 3 C-2.68 2.01 -1.36 1.02 0 0 Z " fill="#F94719" transform="translate(128,52)"/>
<path d="M0 0 C2.6875 -0.3125 2.6875 -0.3125 5 0 C4.67 0.99 4.34 1.98 4 3 C0.4375 4.1875 0.4375 4.1875 -3 5 C-1.8125 2.5 -1.8125 2.5 0 0 Z " fill="#EBFAF2" transform="translate(51,154)"/>
<path d="M0 0 C0.99 0.33 1.98 0.66 3 1 C1.6875 3 1.6875 3 0 5 C-0.99 5 -1.98 5 -3 5 C-3 4.34 -3 3.68 -3 3 C-3.66 2.67 -4.32 2.34 -5 2 C-3.35 2 -1.7 2 0 2 C0 1.34 0 0.68 0 0 Z " fill="#DE6D54" transform="translate(55,148)"/>
<path d="M0 0 C1.32 0 2.64 0 4 0 C4 0.66 4 1.32 4 2 C3.01 2 2.02 2 1 2 C1 2.66 1 3.32 1 4 C0.34 4 -0.32 4 -1 4 C-1 4.66 -1 5.32 -1 6 C-1.66 6 -2.32 6 -3 6 C-3 5.01 -3 4.02 -3 3 C-2.34 3 -1.68 3 -1 3 C-0.67 2.01 -0.34 1.02 0 0 Z " fill="#F14A2C" transform="translate(83,114)"/>
<path d="M0 0 C3 1 3 1 4.1875 3.0625 C4.455625 3.701875 4.72375 4.34125 5 5 C4.01 5.33 3.02 5.66 2 6 C1.01 5.34 0.02 4.68 -1 4 C-0.67 2.68 -0.34 1.36 0 0 Z " fill="#FCE5D1" transform="translate(165,111)"/>
<path d="M0 0 C0.33 1.32 0.66 2.64 1 4 C-0.65 4.33 -2.3 4.66 -4 5 C-4 3.68 -4 2.36 -4 1 C-2 0 -2 0 0 0 Z " fill="#EB4F22" transform="translate(174,99)"/>
<path d="M0 0 C1.32 0 2.64 0 4 0 C4.66 1.32 5.32 2.64 6 4 C5.01 4.66 4.02 5.32 3 6 C0 1.125 0 1.125 0 0 Z " fill="#F7EFE9" transform="translate(169,86)"/>
<path d="M0 0 C1.65 0 3.3 0 5 0 C4.67 1.32 4.34 2.64 4 4 C2.68 4 1.36 4 0 4 C0 2.68 0 1.36 0 0 Z " fill="#EA501E" transform="translate(51,83)"/>
<path d="M0 0 C1.98 0.66 3.96 1.32 6 2 C6 3.32 6 4.64 6 6 C3.5625 5.25 3.5625 5.25 1 4 C0.1875 1.875 0.1875 1.875 0 0 Z " fill="#F7441B" transform="translate(160,84)"/>
<path d="M0 0 C1.32 0 2.64 0 4 0 C4 1.32 4 2.64 4 4 C2.35 4.33 0.7 4.66 -1 5 C-0.67 3.35 -0.34 1.7 0 0 Z " fill="#F8F8F1" transform="translate(35,76)"/>
<path d="M0 0 C0.99 0.33 1.98 0.66 3 1 C2.6875 2.9375 2.6875 2.9375 2 5 C1.01 5.33 0.02 5.66 -1 6 C-1.66 5.34 -2.32 4.68 -3 4 C-2.67 3.34 -2.34 2.68 -2 2 C-1.34 2 -0.68 2 0 2 C0 1.34 0 0.68 0 0 Z " fill="#E94E1C" transform="translate(70,68)"/>
<path d="M0 0 C0.99 0.99 1.98 1.98 3 3 C2.01 3.99 1.02 4.98 0 6 C-0.99 5.67 -1.98 5.34 -3 5 C-2.01 3.35 -1.02 1.7 0 0 Z " fill="#EF493A" transform="translate(89,54)"/>
<path d="M0 0 C0.66 0.33 1.32 0.66 2 1 C1.01 2.485 1.01 2.485 0 4 C-2.64 3.67 -5.28 3.34 -8 3 C-8 2.67 -8 2.34 -8 2 C-6.865625 1.855625 -5.73125 1.71125 -4.5625 1.5625 C-1.19222799 1.38828522 -1.19222799 1.38828522 0 0 Z " fill="#FBF7E6" transform="translate(125,168)"/>
<path d="M0 0 C1.32 0 2.64 0 4 0 C4.33 0.99 4.66 1.98 5 3 C4.67 3.66 4.34 4.32 4 5 C3.01 5 2.02 5 1 5 C0.67 3.35 0.34 1.7 0 0 Z " fill="#EFFDF5" transform="translate(66,167)"/>
<path d="M0 0 C0.99 0.33 1.98 0.66 3 1 C0.69 3.31 -1.62 5.62 -4 8 C-4.33 7.01 -4.66 6.02 -5 5 C-3.35 3.35 -1.7 1.7 0 0 Z " fill="#D26351" transform="translate(72,132)"/>
<path d="M0 0 C1.65 0.33 3.3 0.66 5 1 C4.67 1.99 4.34 2.98 4 4 C2.35 4.33 0.7 4.66 -1 5 C-0.67 3.35 -0.34 1.7 0 0 Z " fill="#F0F8ED" transform="translate(49,120)"/>
<path d="M0 0 C-0.33 1.98 -0.66 3.96 -1 6 C-4.875 4.25 -4.875 4.25 -6 2 C-2.25 0 -2.25 0 0 0 Z " fill="#EA4C1F" transform="translate(165,100)"/>
<path d="M0 0 C0.66 0 1.32 0 2 0 C1.75 2.875 1.75 2.875 1 6 C-1.0625 7.375 -1.0625 7.375 -3 8 C-2.34 7.01 -1.68 6.02 -1 5 C-1.33 4.01 -1.66 3.02 -2 2 C-1.34 2 -0.68 2 0 2 C0 1.34 0 0.68 0 0 Z " fill="#FD3E20" transform="translate(87,95)"/>
<path d="M0 0 C0.99 0.66 1.98 1.32 3 2 C0.03 4.475 0.03 4.475 -3 7 C-2.67 5.35 -2.34 3.7 -2 2 C-1.34 2 -0.68 2 0 2 C0 1.34 0 0.68 0 0 Z " fill="#DA5E49" transform="translate(59,85)"/>
<path d="M0 0 C1.32 0.33 2.64 0.66 4 1 C1.03 3.475 1.03 3.475 -2 6 C-2.33 5.01 -2.66 4.02 -3 3 C-2.34 3 -1.68 3 -1 3 C-0.67 2.01 -0.34 1.02 0 0 Z " fill="#DF5C47" transform="translate(64,80)"/>
<path d="M0 0 C3.91402949 1.26941497 5.79072873 2.51167694 8 6 C7.67 6.66 7.34 7.32 7 8 C5.83035398 6.8572081 4.66435444 5.71068285 3.5 4.5625 C2.8503125 3.92441406 2.200625 3.28632812 1.53125 2.62890625 C0 1 0 1 0 0 Z " fill="#FCE6D7" transform="translate(120,40)"/>
<path d="M0 0 C1.32 0.66 2.64 1.32 4 2 C1.23776722 4.76223278 -1.20706617 4.57856291 -5 5 C-4.34 4.34 -3.68 3.68 -3 3 C-2.01 3 -1.02 3 0 3 C0 2.01 0 1.02 0 0 Z " fill="#FCE3D7" transform="translate(75,159)"/>
<path d="M0 0 C0.66 0.33 1.32 0.66 2 1 C0.37660195 2.70884005 -1.29319053 4.37446717 -3 6 C-3.66 6 -4.32 6 -5 6 C-5.33 6.66 -5.66 7.32 -6 8 C-5.65120368 4.74456771 -4.97866739 3.98126893 -2.4375 1.75 C-1.633125 1.1725 -0.82875 0.595 0 0 Z " fill="#D46351" transform="translate(38,108)"/>
<path d="M0 0 C2.0625 0.4375 2.0625 0.4375 4 1 C1.03 3.475 1.03 3.475 -2 6 C-1.125 1.125 -1.125 1.125 0 0 Z " fill="#D85436" transform="translate(94,109)"/>
<path d="M0 0 C1.32 0.33 2.64 0.66 4 1 C4.33 2.65 4.66 4.3 5 6 C3.68 5.67 2.36 5.34 1 5 C0.67 3.35 0.34 1.7 0 0 Z " fill="#EAFAF2" transform="translate(115,89)"/>
<path d="M0 0 C1.98 1.65 3.96 3.3 6 5 C5.01 5.495 5.01 5.495 4 6 C1.375 4.5625 1.375 4.5625 -1 3 C-0.67 2.01 -0.34 1.02 0 0 Z " fill="#F9D5C6" transform="translate(138,84)"/>
<path d="M0 0 C0.66 0.66 1.32 1.32 2 2 C0.37660195 3.70884005 -1.29319053 5.37446717 -3 7 C-3.66 7 -4.32 7 -5 7 C-4.34 5.35 -3.68 3.7 -3 2 C-2.01 2 -1.02 2 0 2 C0 1.34 0 0.68 0 0 Z " fill="#F8DFC8" transform="translate(84,33)"/>
<path d="M0 0 C1.65 0 3.3 0 5 0 C5.33 1.98 5.66 3.96 6 6 C5.01 5.34 4.02 4.68 3 4 C3 3.34 3 2.68 3 2 C2.01 2 1.02 2 0 2 C0 1.34 0 0.68 0 0 Z " fill="#FEE2DA" transform="translate(98,19)"/>
</svg>
